<?xml version="1.0" encoding="utf-8"?>
<!-- Generator: Adobe Illustrator 21.1.0, SVG Export Plug-In . SVG Version: 6.00 Build 0)  -->
<svg version="1.1" id="レイヤー_1" xmlns="http://www.w3.org/2000/svg" xmlns:xlink="http://www.w3.org/1999/xlink" x="0px"
	 y="0px" viewBox="0 0 60.1 280" style="enable-background:new 0 0 60.1 280;" xml:space="preserve">
<style type="text/css">
	.st0{fill:#E1C744;}
	.st1{fill:#1D2E5F;}
	.st2{fill:#FFFFFF;}
	.st3{fill:none;stroke:#1D2E5F;stroke-linecap:round;stroke-miterlimit:10;}
	.st4{fill:#141312;}
</style>
<g>
	<path class="st0" d="M5,0C2.2,0,0,2.2,0,5v270c0,2.8,2.2,5,5,5h55.1V0H5z"/>
	<g>
		<g>
			<path class="st1" d="M24.7,20.4c0.9,0,1.9,0,2.7-0.1c0.2,0,0.2,0.1,0.3,0.3c0,0.5,0,1,0,1.4c0,0.2-0.1,0.3-0.3,0.3
				c-0.6,0-1.7,0-2.6,0H24c-0.1,2.6-0.5,4.1-1.4,5.5c-0.9,1.5-2.4,2.6-4.2,3.3c-0.3,0.1-0.4,0.2-0.5,0.2c-0.1,0-0.2-0.1-0.3-0.2
				c-0.5-0.6-0.9-0.8-1.5-1.1c2.6-0.8,3.9-1.7,4.9-3.2c0.7-1.2,1-2.4,1.1-4.6h-3.8V23c0,1.1,0,2,0.1,3c0,0.2-0.1,0.2-0.3,0.3
				c-0.5,0-1.1,0-1.5,0c-0.2,0-0.3-0.1-0.3-0.3c0.1-0.9,0.1-1.8,0.1-3v-0.7h-0.5c-1,0-2.4,0.1-3,0.1c-0.1,0-0.2-0.1-0.2-0.3
				c-0.1-0.4-0.1-1-0.1-1.7c0.8,0.1,1.9,0.1,3.3,0.1h0.5v-1.3c0-1.2,0-1.6-0.2-2.6c0.9,0.1,1.8,0.2,2.2,0.3c0.2,0,0.3,0.1,0.3,0.3
				c0,0.1-0.1,0.2-0.1,0.4c-0.1,0.3-0.1,0.5-0.1,1.7v1.3H22l0-1.8c0-1,0-1.8-0.2-2.5c0.7,0.1,1.7,0.2,2.1,0.3
				c0.3,0.1,0.3,0.1,0.3,0.3c0,0.1,0,0.2-0.1,0.3c-0.1,0.3-0.1,0.8-0.1,1.6v1.7H24.7z"/>
			<path class="st1" d="M14.7,34.1c0.1-0.1,0.2-0.1,0.3-0.1c0.1,0,0.1,0,0.2,0.1c0.9,0.5,2.4,1.6,3.4,2.6c0.1,0.1,0.2,0.2,0.2,0.3
				c0,0.1,0,0.1-0.1,0.2c-0.3,0.4-0.9,1.1-1.1,1.4c-0.1,0.1-0.1,0.1-0.2,0.1c-0.1,0-0.1-0.1-0.2-0.1c-1.1-1.1-2.4-2.1-3.7-2.9
				C13.8,35,14.3,34.5,14.7,34.1z M16.2,43.6c2.2-1.1,3.4-1.9,5.2-3.3c2.2-1.8,3.4-2.9,4.9-4.9c0.1,0.9,0.3,1.5,0.5,2.1
				c0.1,0.1,0.1,0.2,0.1,0.3c0,0.2-0.1,0.3-0.3,0.5c-1,1.1-2.5,2.6-4.1,3.8c-1.5,1.2-3,2.2-5.4,3.5c-0.8,0.5-1,0.7-1.2,0.8
				c-0.1,0.1-0.2,0.2-0.3,0.2c-0.1,0-0.2-0.1-0.3-0.2c-0.5-0.5-1-1.2-1.4-2C14.7,44.2,15.3,44.1,16.2,43.6z"/>
			<path class="st1" d="M16.5,52.8c-1.2,0-2.2,0.1-3,0.1c-0.2,0-0.3-0.1-0.3-0.4c-0.1-0.4-0.1-1.3-0.2-1.8c0.8,0.1,1.8,0.1,3.5,0.1
				h6.4c0.5,0,0.7,0,1-0.2c0.1-0.1,0.2-0.1,0.3-0.1c0.1,0,0.2,0,0.3,0.1c0.5,0.4,0.9,0.8,1.2,1.2c0.1,0.1,0.1,0.2,0.1,0.4
				c0,0.1-0.1,0.2-0.2,0.3c-0.2,0.2-0.3,0.3-0.4,0.7c-0.9,2.1-2,4.1-3.5,5.9c-1.5,1.8-3.3,3.3-5.1,4.3c-0.2,0.1-0.3,0.2-0.5,0.2
				c-0.1,0-0.3-0.1-0.5-0.2c-0.4-0.4-1-0.7-1.7-1c2.6-1.3,4.2-2.6,5.9-4.5c1.4-1.6,2.3-3.1,3-5.1H16.5z M28.9,49.4
				c0,1.1-0.9,1.9-1.9,1.9S25,50.4,25,49.4c0-1.1,0.9-1.9,1.9-1.9S28.9,48.3,28.9,49.4z M25.9,49.4c0,0.6,0.5,1.1,1.1,1.1
				s1.1-0.5,1.1-1.1s-0.5-1.1-1.1-1.1S25.9,48.7,25.9,49.4z"/>
			<path class="st1" d="M17.8,67.7c0.3,0.1,0.3,0.3,0.2,0.6c-0.2,0.4-0.2,0.8-0.2,1.2c0,2.3-0.4,4-1,5.3c-0.5,1.1-1.3,2.3-2.6,3.4
				c-0.2,0.1-0.3,0.2-0.5,0.2c-0.1,0-0.2-0.1-0.3-0.1c-0.5-0.3-0.9-0.5-1.5-0.8c1.4-1.1,2.4-2.2,3-3.6c0.5-1.2,0.7-2.2,0.8-5.1
				c0-0.7,0-1-0.2-1.5C16.6,67.4,17.4,67.6,17.8,67.7z M21.8,75.3c0.9-0.5,1.7-1,2.6-1.7c1.1-0.8,2.1-1.8,3.2-3.1
				c0.1,0.6,0.3,1.2,0.6,1.8c0.1,0.1,0.1,0.2,0.1,0.3c0,0.1-0.1,0.3-0.3,0.4c-0.9,0.9-1.7,1.7-2.7,2.4c-0.9,0.7-1.9,1.4-3.2,2.2
				c-0.3,0.2-0.4,0.3-0.5,0.4c-0.1,0.1-0.2,0.1-0.4,0.1c-0.1,0-0.2-0.1-0.4-0.1c-0.4-0.3-0.8-0.7-1.1-1.1c-0.1-0.2-0.2-0.3-0.2-0.4
				c0-0.1,0-0.2,0.1-0.3c0.1-0.2,0.1-0.4,0.1-1.4v-5.6c0-1.6,0-2.3-0.2-3.1c0.7,0.1,1.7,0.2,2.3,0.4c0.2,0.1,0.3,0.2,0.3,0.3
				c0,0.1-0.1,0.3-0.1,0.5c-0.2,0.3-0.2,0.7-0.2,2V75.3z"/>
			<path class="st1" d="M16.1,84.1c1.4,0,1.8,0,1.9,0c0.2,0,0.2,0,0.2,0.2v1.3c0,0.2,0,0.2-0.2,0.2c-0.1,0-0.6,0-1.9,0H14
				c-1.4,0-1.8,0-1.9,0c-0.2,0-0.2,0-0.2-0.2v-1.3c0-0.2,0-0.2,0.2-0.2c0.1,0,0.6,0,1.9,0H16.1z M17.8,94.3c0,2.1,0,2.5,0,2.6
				c0,0.2,0,0.2-0.2,0.2h-1.3c-0.2,0-0.2,0-0.2-0.2v-0.5h-1.9v0.8c0,0.2,0,0.2-0.2,0.2h-1.3c-0.2,0-0.2,0-0.2-0.2c0-0.1,0-0.5,0-2.7
				v-1.2c0-1.1,0-1.6,0-1.7c0-0.2,0-0.2,0.2-0.2c0.1,0,0.5,0,1.6,0H16c1.2,0,1.5,0,1.7,0c0.2,0,0.2,0,0.2,0.2c0,0.1,0,0.5,0,1.4
				V94.3z M16,81.6c1.2,0,1.5,0,1.6,0c0.2,0,0.2,0,0.2,0.2V83c0,0.2,0,0.2-0.2,0.2c-0.1,0-0.5,0-1.6,0h-1.5c-1.2,0-1.5,0-1.6,0
				c-0.2,0-0.2,0-0.2-0.2v-1.2c0-0.2,0-0.2,0.2-0.2c0.1,0,0.5,0,1.6,0H16z M15.9,86.7c1.1,0,1.4,0,1.5,0c0.2,0,0.2,0,0.2,0.2V88
				c0,0.2,0,0.2-0.2,0.2c-0.1,0-0.4,0-1.5,0h-1.4c-1.1,0-1.4,0-1.5,0c-0.2,0-0.2,0-0.2-0.2v-1.2c0-0.2,0-0.2,0.2-0.2
				c0.1,0,0.4,0,1.5,0H15.9z M15.9,89.1c1.1,0,1.4,0,1.5,0c0.2,0,0.2,0,0.2,0.2v1.2c0,0.2,0,0.2-0.2,0.2c-0.1,0-0.4,0-1.5,0h-1.4
				c-1.1,0-1.4,0-1.5,0c-0.2,0-0.2,0-0.2-0.2v-1.2c0-0.2,0-0.2,0.2-0.2c0.1,0,0.4,0,1.5,0H15.9z M14.3,93v1.9h1.9V93H14.3z M23.9,86
				v0.8h1.8c1.7,0,2.3,0,2.4,0c0.2,0,0.2,0,0.2,0.2v1c0,0.2,0,0.2-0.2,0.2c-0.1,0-0.7,0-2.4,0h-4.8c-1.7,0-2.3,0-2.4,0
				c-0.2,0-0.2,0-0.2-0.2v-1c0-0.2,0-0.2,0.2-0.2c0.1,0,0.7,0,2.4,0h1.3V86h-0.6c-1.5,0-2.1,0-2.2,0c-0.2,0-0.2,0-0.2-0.2v-0.9
				c0-0.2,0-0.2,0.2-0.2c0.1,0,0.6,0,2.2,0h0.6v-0.8h-0.9c-1.6,0-2.2,0-2.3,0c-0.2,0-0.2,0-0.2-0.2v-1c0-0.2,0-0.2,0.2-0.2
				c0.1,0,0.6,0,2.3,0h0.9c0-0.6-0.1-1.2-0.1-1.8c0.7,0,1.2,0.1,1.8,0.1c0.2,0,0.3,0.1,0.3,0.2c0,0.2-0.1,0.3-0.1,0.4
				c-0.1,0.2-0.1,0.5-0.1,1h1.4c1.6,0,2.2,0,2.3,0c0.2,0,0.2,0,0.2,0.2v1c0,0.2,0,0.2-0.2,0.2c-0.1,0-0.7,0-2.3,0h-1.4v0.8h0.9
				c1.5,0,2.1,0,2.2,0c0.2,0,0.2,0,0.2,0.2v0.9c0,0.2,0,0.2-0.2,0.2c-0.1,0-0.6,0-2.1,0H23.9z M27,92.8c0,0.9,0,1.9,0,2.6
				c0,0.7-0.1,1.2-0.5,1.5c-0.3,0.3-0.7,0.4-2,0.4c-0.6,0-0.6,0-0.7-0.4c-0.1-0.5-0.2-0.8-0.5-1.2c0.4,0,0.9,0.1,1.2,0.1
				c0.6,0,0.7-0.2,0.7-0.6v-0.7h-4.4v0.6c0,1.4,0,2.1,0,2.1c0,0.2,0,0.2-0.2,0.2h-1.4c-0.2,0-0.2,0-0.2-0.2c0-0.1,0-0.6,0-2.1v-4
				c0-1.3,0-1.8,0-2c0-0.2,0-0.2,0.2-0.2c0.1,0,0.6,0,2.2,0h3.1c1.5,0,2,0,2.1,0c0.2,0,0.2,0,0.2,0.2c0,0.1,0,0.8,0,2.1V92.8z
				 M20.9,90.3v0.8h4.4v-0.8H20.9z M25.3,93.3v-0.9h-4.4v0.9H25.3z"/>
			<path class="st1" d="M14.6,104.3c-1.6,0-2.2,0-2.3,0c-0.2,0-0.2,0-0.2-0.2v-1.4c0-0.2,0-0.2,0.2-0.2c0.1,0,0.7,0,2.3,0H19v-1.1
				c0-1,0-1.6-0.1-2.2c0.7,0,1.3,0.1,2,0.1c0.2,0,0.3,0.1,0.3,0.2c0,0.2,0,0.3-0.1,0.5c-0.1,0.2-0.1,0.7-0.1,1.4v1.1h4.3
				c1.6,0,2.2,0,2.3,0c0.2,0,0.2,0,0.2,0.2v1.4c0,0.2,0,0.2-0.2,0.2c-0.1,0-0.7,0-2.3,0H21c0.4,1.2,0.9,2.3,1.5,3.3
				c0.7-0.6,1.3-1.2,2-2c0.2-0.3,0.4-0.5,0.6-0.9c0.6,0.4,1.1,0.7,1.4,1c0.2,0.2,0.2,0.3,0.2,0.4c0,0.1-0.1,0.2-0.3,0.3
				c-0.2,0.1-0.5,0.3-0.9,0.7c-0.6,0.6-1.2,1.2-2,1.8c1.2,1.5,2.8,2.7,4.6,3.7c-0.3,0.3-0.7,0.8-1,1.3c-0.2,0.3-0.2,0.4-0.3,0.4
				c-0.1,0-0.2-0.1-0.4-0.2c-2.8-1.8-4.6-4.1-5.6-7.1c0.1,2.3,0.1,4.6,0.1,6.6c0,0.8-0.1,1.3-0.7,1.6c-0.4,0.3-1,0.4-2.5,0.4
				c-0.6,0-0.5,0-0.7-0.5c-0.2-0.5-0.4-1-0.7-1.4c0.6,0.1,1,0.1,1.4,0.1c1,0,1.2-0.1,1.2-0.7v-8.8H14.6z M18.2,110
				c0.1,0.6,0.1,0.6-0.3,0.9c-1.4,1-2.7,1.9-3.9,2.5c-0.3,0.1-0.4,0.3-0.5,0.4c-0.1,0.1-0.2,0.2-0.3,0.2c-0.1,0-0.2-0.1-0.3-0.2
				c-0.2-0.4-0.5-1-0.8-1.6c0.5-0.2,1-0.4,1.5-0.6c1.5-0.7,3-1.7,4.5-2.8C18,109,18.1,109.5,18.2,110z M14.5,105
				c0.2-0.2,0.2-0.2,0.4-0.1c0.8,0.5,1.8,1.5,2.5,2.2c0.1,0.1,0.1,0.1,0.1,0.2c0,0,0,0.1-0.1,0.2l-1,1c-0.2,0.2-0.2,0.2-0.4,0.1
				c-0.6-0.8-1.5-1.7-2.4-2.4c-0.1-0.1-0.1-0.1-0.1-0.1c0-0.1,0.1-0.1,0.2-0.2L14.5,105z M23.5,99.5c0.2-0.1,0.2-0.1,0.4,0
				c0.7,0.4,1.4,1.1,2,1.7c0.1,0.1,0.1,0.2-0.1,0.4l-0.9,0.7c-0.1,0.1-0.2,0.1-0.2,0.1c-0.1,0-0.1-0.1-0.2-0.1
				c-0.5-0.6-1.2-1.3-1.9-1.8c-0.1-0.1-0.1-0.1,0.1-0.3L23.5,99.5z"/>
			<path class="st1" d="M21.8,125.9c0,1-0.8,1.8-1.8,1.8s-1.8-0.8-1.8-1.8c0-1,0.8-1.8,1.8-1.8S21.8,124.9,21.8,125.9z"/>
			<path class="st1" d="M15.8,139.2c1.4,0,1.8,0,1.9,0c0.2,0,0.2,0,0.2,0.2v1.3c0,0.2,0,0.2-0.2,0.2c-0.1,0-0.5,0-1.9,0H14
				c-1.4,0-1.8,0-1.9,0c-0.2,0-0.2,0-0.2-0.2v-1.3c0-0.2,0-0.2,0.2-0.2c0.1,0,0.5,0,1.9,0H15.8z M17.6,149.4c0,2.1,0,2.5,0,2.6
				c0,0.2,0,0.2-0.2,0.2h-1.3c-0.2,0-0.2,0-0.2-0.2v-0.5h-1.6v0.8c0,0.2,0,0.2-0.2,0.2h-1.3c-0.2,0-0.2,0-0.2-0.2c0-0.1,0-0.5,0-2.7
				v-1.2c0-1.1,0-1.6,0-1.7c0-0.2,0-0.2,0.2-0.2c0.1,0,0.5,0,1.6,0h1.4c1.2,0,1.5,0,1.7,0c0.2,0,0.2,0,0.2,0.2c0,0.1,0,0.5,0,1.4
				V149.4z M15.8,136.7c1.2,0,1.5,0,1.6,0c0.2,0,0.2,0,0.2,0.2v1.2c0,0.2,0,0.2-0.2,0.2c-0.1,0-0.5,0-1.6,0h-1.4c-1.2,0-1.5,0-1.6,0
				c-0.2,0-0.2,0-0.2-0.2v-1.2c0-0.2,0-0.2,0.2-0.2c0.1,0,0.5,0,1.6,0H15.8z M15.7,141.7c1.1,0,1.4,0,1.5,0c0.2,0,0.2,0,0.2,0.2v1.2
				c0,0.2,0,0.2-0.2,0.2c-0.1,0-0.4,0-1.5,0h-1.3c-1.1,0-1.4,0-1.5,0c-0.2,0-0.2,0-0.2-0.2v-1.2c0-0.2,0-0.2,0.2-0.2
				c0.1,0,0.4,0,1.5,0H15.7z M15.7,144.2c1.1,0,1.4,0,1.5,0c0.2,0,0.2,0,0.2,0.2v1.2c0,0.2,0,0.2-0.2,0.2c-0.1,0-0.4,0-1.5,0h-1.3
				c-1.1,0-1.4,0-1.5,0c-0.2,0-0.2,0-0.2-0.2v-1.2c0-0.2,0-0.2,0.2-0.2c0.1,0,0.4,0,1.5,0H15.7z M14.2,148.1v1.9h1.6v-1.9H14.2z
				 M21.1,143c1,0,1.3,0,1.4,0c0.2,0,0.2,0,0.2,0.2v1.2c0,0.2,0,0.2-0.2,0.2c-0.1,0-0.4,0-1.1,0v3.6c0.6-0.2,1.3-0.4,2-0.7
				c0,0.3-0.1,0.7-0.1,1c0,0.6,0,0.6-0.5,0.8c-1.3,0.5-2.4,0.9-3.5,1.2c-0.4,0.1-0.5,0.1-0.6,0.2c-0.1,0.1-0.2,0.1-0.3,0.1
				c-0.1,0-0.2-0.1-0.2-0.2c-0.1-0.4-0.3-1-0.4-1.7c0.6-0.1,1.1-0.1,1.6-0.3l0.3-0.1v-4.1c-0.9,0-1.2,0-1.3,0c-0.2,0-0.2,0-0.2-0.2
				v-1.2c0-0.2,0-0.2,0.2-0.2c0.1,0,0.4,0,1.4,0H21.1z M21,141c-1.7,0-2.3,0-2.4,0c-0.2,0-0.2,0-0.2-0.2v-1.4c0-0.2,0-0.2,0.2-0.2
				c0.1,0,0.7,0,2.4,0h2.2v-0.7c0-1.2,0-1.8-0.1-2.6c0.7,0,1.2,0.1,1.8,0.1c0.2,0,0.3,0.1,0.3,0.2c0,0.1-0.1,0.2-0.1,0.4
				c-0.1,0.2-0.1,0.4-0.1,1.4v1.2h0.6c1.7,0,2.2,0,2.4,0c0.2,0,0.2,0,0.2,0.2v1.4c0,0.2,0,0.2-0.2,0.2c-0.1,0-0.7,0-2.4,0H25
				c0.1,2.6,0.3,4.8,0.7,6.7c0.3,1.3,0.6,2.1,0.9,2.1c0.3,0,0.5-0.6,0.5-2.4c0.3,0.3,0.7,0.5,1,0.6c0.5,0.2,0.5,0.3,0.4,0.8
				c-0.3,2.4-0.8,3.3-1.9,3.3c-1,0-2.1-0.9-2.8-3.8c-0.5-1.9-0.7-4.5-0.8-7.3H21z M26.5,136.5c0.2-0.1,0.3-0.1,0.4,0.1
				c0.4,0.6,0.7,1.1,1,1.8c0.1,0.2,0,0.2-0.2,0.3l-0.8,0.4c-0.3,0.1-0.3,0.1-0.3-0.1c-0.3-0.7-0.6-1.3-1-1.8
				c-0.1-0.2-0.1-0.2,0.1-0.3L26.5,136.5z"/>
			<path class="st1" d="M14.2,163.8c0-0.7,0-1.5,0-2.3c-0.4,0.6-0.9,1.1-1.4,1.7c-0.1,0.1-0.2,0.2-0.3,0.2c-0.1,0-0.2-0.1-0.2-0.3
				c-0.1-0.6-0.4-1.2-0.7-1.6c1.7-1.7,2.9-3.9,3.7-5.9c0.2-0.4,0.3-0.9,0.3-1.3c0.6,0.2,1.2,0.3,1.7,0.5c0.2,0.1,0.3,0.2,0.3,0.3
				c0,0.1,0,0.2-0.2,0.3c-0.1,0.1-0.2,0.3-0.4,0.8c-0.3,0.8-0.7,1.6-1.1,2.4v9.4c0,1.8,0,2.6,0,2.7c0,0.2,0,0.2-0.2,0.2h-1.5
				c-0.2,0-0.2,0-0.2-0.2c0-0.1,0-1,0-2.7V163.8z M20.2,159.2c-0.6,1.2-1.4,2.3-2.2,3.3c-0.2,0.2-0.3,0.3-0.3,0.3
				c-0.1,0-0.2-0.1-0.3-0.4c-0.3-0.5-0.6-0.9-0.9-1.1c1.4-1.5,2.7-3.9,3.3-5.6c0.1-0.5,0.3-1,0.3-1.4c0.7,0.1,1.2,0.2,1.8,0.4
				c0.2,0.1,0.3,0.1,0.3,0.3s0,0.2-0.2,0.3s-0.3,0.4-0.5,0.9c-0.2,0.4-0.3,0.9-0.6,1.3h4.7c1.6,0,2.1,0,2.2,0c0.2,0,0.2,0,0.2,0.2
				v1.3c0,0.2,0,0.2-0.2,0.2c-0.1,0-0.6,0-2.2,0h-2.9v2.1h2.3c1.4,0,1.9,0,2,0c0.2,0,0.2,0,0.2,0.2v1.3c0,0.2,0,0.2-0.2,0.2
				c-0.1,0-0.6,0-2,0h-2.3v2.2h2.3c1.4,0,1.9,0,2,0c0.2,0,0.2,0,0.2,0.2v1.3c0,0.2,0,0.2-0.2,0.2c-0.1,0-0.6,0-2,0h-2.3v1
				c0,1.8,0,2.7,0,2.8c0,0.2,0,0.2-0.2,0.2h-1.5c-0.2,0-0.2,0-0.2-0.2c0-0.1,0-1,0-2.8v-8.6H20.2z"/>
			<path class="st1" d="M24.7,177.4c0.9,0,1.9,0,2.7-0.1c0.2,0,0.2,0.1,0.3,0.3c0,0.5,0,1,0,1.4c0,0.2-0.1,0.3-0.3,0.3
				c-0.6,0-1.7,0-2.6,0H24c-0.1,2.6-0.5,4.1-1.4,5.5c-0.9,1.5-2.4,2.6-4.2,3.3c-0.3,0.1-0.4,0.2-0.5,0.2c-0.1,0-0.2-0.1-0.3-0.2
				c-0.5-0.6-0.9-0.8-1.5-1.1c2.6-0.8,3.9-1.7,4.9-3.2c0.7-1.2,1-2.4,1.1-4.6h-3.8v0.6c0,1.1,0,2,0.1,3c0,0.2-0.1,0.2-0.3,0.3
				c-0.5,0-1.1,0-1.5,0c-0.2,0-0.3-0.1-0.3-0.3c0.1-0.9,0.1-1.8,0.1-3v-0.7h-0.5c-1,0-2.4,0.1-3,0.1c-0.1,0-0.2-0.1-0.2-0.3
				c-0.1-0.4-0.1-1-0.1-1.7c0.8,0.1,1.9,0.1,3.3,0.1h0.5v-1.3c0-1.2,0-1.6-0.2-2.6c0.9,0.1,1.8,0.2,2.2,0.3c0.2,0,0.3,0.1,0.3,0.3
				c0,0.1-0.1,0.2-0.1,0.4c-0.1,0.3-0.1,0.5-0.1,1.7v1.3H22l0-1.8c0-1,0-1.8-0.2-2.5c0.7,0.1,1.7,0.2,2.1,0.3
				c0.3,0.1,0.3,0.1,0.3,0.3c0,0.1,0,0.2-0.1,0.3c-0.1,0.3-0.1,0.8-0.1,1.6v1.7H24.7z"/>
			<path class="st1" d="M16.6,199.3c0.3,0.2,0.4,0.4,0.1,0.6c-0.2,0.1-0.3,0.3-0.5,0.6c-0.5,1-1.3,2.2-2,3c-0.2,0.2-0.4,0.3-0.6,0.1
				c-0.5-0.3-1-0.6-1.5-0.8c1-1.1,1.7-2,2.2-3c0.3-0.5,0.4-0.9,0.5-1.5C15.5,198.7,16.1,199,16.6,199.3z M19,194.3
				c0-1.1,0-2-0.2-2.8c0.8,0.1,1.8,0.2,2.2,0.3c0.4,0.1,0.4,0.3,0.2,0.6c-0.2,0.3-0.2,0.7-0.2,1.8v1h2.2c1.6,0,2.8-0.1,3.7-0.1
				c0.2,0,0.2,0.1,0.2,0.3c0,0.5,0,0.9,0,1.4c0,0.2-0.1,0.4-0.3,0.3c-1.1,0-2.5-0.1-3.7-0.1h-2.1l0,3.6c0,1,0,1.7,0,3.1
				c0,0.9-0.3,1.5-1.1,1.9c-0.6,0.3-1.5,0.6-2.3,0.6c-0.2,0-0.3-0.1-0.4-0.4c-0.3-0.6-0.6-1.2-1.2-1.6c1.2,0,2-0.1,2.4-0.2
				c0.3-0.1,0.4-0.3,0.4-0.8V197h-2.8c-1,0-2.3,0.1-3.1,0.1c-0.2,0-0.2-0.1-0.2-0.4c0-0.3-0.1-1.1-0.1-1.7c1.4,0.1,2.5,0.1,3.4,0.1
				H19V194.3z M24.3,198.6c0.2-0.2,0.4-0.1,0.5,0.1c0.9,0.8,1.7,1.9,2.6,3.3c0.2,0.3,0.1,0.4-0.1,0.6c-0.3,0.3-0.8,0.6-1.2,0.9
				c-0.2,0.1-0.3,0.2-0.4-0.1c-0.6-1.2-1.6-2.7-2.7-3.8C23.4,199.2,23.9,198.9,24.3,198.6z M27.9,192.2c0,1.1-0.9,1.9-1.9,1.9
				s-1.9-0.8-1.9-1.9c0-1.1,0.9-1.9,1.9-1.9S27.9,191.1,27.9,192.2z M24.8,192.2c0,0.6,0.5,1.1,1.1,1.1s1.1-0.4,1.1-1.1
				s-0.5-1.1-1.1-1.1S24.8,191.6,24.8,192.2z"/>
			<path class="st1" d="M18.9,212.3c0-1.8,0-2.4-0.2-3.5c1.1,0.1,1.9,0.2,2.4,0.3c0.3,0.1,0.4,0.2,0.4,0.4c0,0.1,0,0.2-0.1,0.3
				c-0.2,0.4-0.3,1.2-0.3,2.7v6.9c0,1.2,0,2.3,0.1,3.5c0,0.3-0.1,0.4-0.3,0.4c-0.5,0-1.1,0-1.6,0c-0.3,0-0.4-0.1-0.3-0.4
				c0-1.2,0-2.3,0-3.5V212.3z"/>
			<path class="st1" d="M19.4,231.1c2.2,0.7,3.9,1.4,5.7,2.4c0.2,0.1,0.3,0.2,0.2,0.5c-0.2,0.6-0.5,1.2-0.8,1.6
				c-0.1,0.1-0.1,0.2-0.2,0.2c-0.1,0-0.1,0-0.2-0.1c-1.7-1.1-3.3-1.9-4.7-2.3v4c0,1.2,0,2.2,0.1,3.5c0,0.2-0.1,0.3-0.3,0.3
				c-0.5,0-1.1,0-1.6,0c-0.3,0-0.3-0.1-0.3-0.3c0.1-1.3,0.1-2.4,0.1-3.5v-8.9c0-1.4-0.1-1.9-0.2-2.7c0.8,0.1,1.7,0.1,2.2,0.3
				c0.3,0.1,0.3,0.2,0.3,0.3c0,0.1-0.1,0.3-0.1,0.4c-0.1,0.2-0.1,0.7-0.1,1.7V231.1z"/>
		</g>
	</g>
	<g>
		<circle class="st2" cx="30" cy="260.7" r="8"/>
		<polyline class="st3" points="28.5,257.9 31.5,260.7 28.5,263.4 		"/>
	</g>
	<g>
		<path class="st4" d="M40.6,21.1c0,0.2,0,0.4-0.1,0.6c0.6,1,1,1.6,1.9,2.3c-0.1,0.1-0.2,0.2-0.3,0.4c-0.1,0.1-0.1,0.2-0.1,0.2
			c0,0-0.1,0-0.1-0.1c-0.6-0.6-1.1-1.2-1.5-1.9c-0.4,1.2-1,2.3-2,3.3c-0.1,0.1-0.1,0.1-0.2,0.1c0,0-0.1,0-0.2-0.1
			c-0.1-0.2-0.2-0.3-0.4-0.3c1.2-1,1.8-2.1,2.2-3.4c0.1-0.3,0.1-0.6,0.2-0.9h-0.7c-0.9,0-1.2,0-1.3,0c-0.1,0-0.1,0-0.1-0.1v-0.5
			c0-0.1,0-0.1,0.1-0.1c0.1,0,0.4,0,1.3,0H40c0.1-0.7,0.1-1.5,0.1-2.3h-0.9c-0.2,0.5-0.5,0.9-0.8,1.4c-0.1,0.1-0.1,0.1-0.1,0.1
			c0,0-0.1,0-0.2-0.1c-0.1-0.1-0.2-0.2-0.4-0.2c0.7-0.9,1.2-1.8,1.5-2.9c0.1-0.3,0.1-0.4,0.1-0.7c0.3,0,0.5,0.1,0.7,0.2
			c0.1,0,0.1,0.1,0.1,0.1c0,0,0,0.1-0.1,0.2s-0.1,0.2-0.2,0.4c-0.1,0.3-0.2,0.6-0.3,0.9h1.4c0.8,0,1,0,1.1,0c0.1,0,0.1,0,0.1,0.1
			v0.5c0,0.1,0,0.1-0.1,0.1c-0.1,0-0.3,0-1.1,0h-0.2c0,0.8,0,1.6-0.1,2.3H41c0.9,0,1.2,0,1.3,0c0.1,0,0.1,0,0.1,0.1V21
			c0,0.1,0,0.1-0.1,0.1c-0.1,0-0.4,0-1.3,0H40.6z M48.6,25.8C48.6,25.8,48.6,25.9,48.6,25.8c-0.2,0.1-0.6,0.1-1.7,0.1h-3.1
			c-1.2,0-1.5,0-1.6,0c-0.1,0-0.1,0-0.1-0.1v-0.5c0-0.1,0-0.1,0.1-0.1c0.1,0,0.5,0,1.6,0h1.8c0.3-0.6,0.6-1.3,0.9-2
			c0.1-0.2,0.1-0.5,0.2-0.7c0.3,0.1,0.5,0.1,0.7,0.2c0.1,0,0.1,0.1,0.1,0.1c0,0.1,0,0.1-0.1,0.2c-0.1,0.1-0.1,0.1-0.3,0.5
			c-0.3,0.6-0.5,1.2-0.8,1.7h0.6c1.2,0,1.6,0,1.6,0c0.1,0,0.1,0,0.1,0.1V25.8z M48.4,17C48.4,17.1,48.4,17.1,48.4,17
			c-0.2,0.1-0.5,0.1-1.7,0.1H44c-1.1,0-1.5,0-1.6,0c-0.1,0-0.1,0-0.1-0.1v-0.5c0-0.1,0-0.1,0.1-0.1c0.1,0,0.4,0,1.6,0h2.7
			c1.1,0,1.5,0,1.6,0c0.1,0,0.1,0,0.1,0.1V17z M47.7,20.8c0,0.7,0,0.9,0,1c0,0.1,0,0.1-0.1,0.1c-0.1,0-0.4,0-1.4,0h-1.9
			c-1,0-1.3,0-1.4,0c-0.1,0-0.1,0-0.1-0.1c0-0.1,0-0.3,0-1v-1.2c0-0.7,0-0.9,0-1c0-0.1,0-0.1,0.1-0.1c0.1,0,0.4,0,1.4,0h1.9
			c1,0,1.3,0,1.4,0c0.1,0,0.1,0,0.1,0.1c0,0.1,0,0.3,0,1V20.8z M43.7,22.4c0.1,0,0.1,0,0.2,0c0.3,0.6,0.6,1.2,0.8,1.8
			c0,0.1,0,0.1-0.1,0.2l-0.4,0.1c-0.2,0.1-0.2,0.1-0.2,0c-0.2-0.6-0.4-1.2-0.7-1.8c0-0.1,0-0.1,0.1-0.2L43.7,22.4z M47,19.2h-3.5
			v2.1H47V19.2z"/>
		<path class="st4" d="M41.3,31.6c0.1,0,0.1,0,0.2,0c0.4,0.7,0.6,1.3,0.9,2.1c0,0.1,0,0.1-0.1,0.2L41.9,34c-0.2,0-0.2,0-0.2,0
			l-0.2-0.6c-0.3,0-0.7,0.1-1,0.1v3.2c0,1.3,0,1.7,0,1.8c0,0.1,0,0.1-0.1,0.1h-0.5c-0.1,0-0.1,0-0.1-0.1c0-0.1,0-0.4,0-1.8v-3.1
			c-0.4,0-0.8,0.1-1.2,0.1c-0.3,0-0.4,0.1-0.5,0.1c0,0-0.1,0-0.1,0c-0.1,0-0.1-0.1-0.1-0.2c0-0.2-0.1-0.4-0.1-0.7c0.3,0,0.5,0,0.8,0
			h0.1c0.3-0.4,0.6-0.8,0.9-1.2c-0.6-0.7-1.1-1.3-1.8-1.9c-0.1-0.1-0.1-0.1,0-0.2l0.2-0.3c0.1-0.1,0.1-0.1,0.2,0l0.5,0.4
			c0.3-0.5,0.7-1,0.9-1.6c0.1-0.2,0.2-0.4,0.2-0.6c0.2,0.1,0.4,0.2,0.6,0.3c0.1,0,0.1,0.1,0.1,0.1s0,0.1-0.1,0.1
			c-0.1,0.1-0.1,0.1-0.2,0.3c-0.4,0.7-0.7,1.2-1.1,1.8c0.3,0.3,0.5,0.6,0.8,0.9c0.3-0.5,0.6-1,0.9-1.5c0.2-0.3,0.3-0.5,0.3-0.8
			c0.2,0.1,0.4,0.2,0.6,0.3c0.1,0,0.1,0.1,0.1,0.1c0,0.1,0,0.1-0.1,0.2c-0.1,0.1-0.2,0.2-0.4,0.5c-0.7,1.1-1.3,2.1-2,3
			c0.6,0,1.2-0.1,1.9-0.1c-0.1-0.3-0.2-0.6-0.4-0.8c0-0.1,0-0.1,0.1-0.2L41.3,31.6z M39.2,34.7c0,0.1-0.1,0.2-0.1,0.5
			c-0.1,0.6-0.3,1.4-0.5,2.2c0,0.1-0.1,0.2-0.1,0.2c0,0-0.1,0-0.2-0.1c-0.1-0.1-0.3-0.1-0.4-0.2c0.3-0.8,0.5-1.6,0.6-2.2
			c0-0.3,0-0.5,0-0.7c0.3,0,0.5,0.1,0.6,0.1c0.1,0,0.2,0.1,0.2,0.1C39.2,34.6,39.2,34.6,39.2,34.7z M41.3,34.3c0.1,0,0.2,0,0.2,0.1
			c0.2,0.7,0.4,1.4,0.5,2.2c0,0.1,0,0.1-0.1,0.2l-0.3,0.1c-0.2,0-0.2,0-0.2-0.1c-0.1-0.9-0.2-1.6-0.4-2.3c0-0.1,0-0.1,0.1-0.1
			L41.3,34.3z M48,35.5c0,0.9,0,1.3,0,1.7c0,0.4-0.1,0.7-0.3,0.9s-0.4,0.3-1.6,0.3c-0.2,0-0.2,0-0.3-0.3c0-0.2-0.1-0.3-0.2-0.5
			c0.4,0,0.9,0,1.2,0c0.4,0,0.5-0.1,0.5-0.5v-6.4h-1.9c0.2,1.3,0.7,3,1.8,4.1c-0.1,0.1-0.2,0.3-0.3,0.5c0,0.1-0.1,0.1-0.1,0.1
			c0,0-0.1,0-0.1-0.1c-0.8-1-1.3-2-1.5-3.3c-0.2,1.2-0.5,2.2-1.4,3.4c-0.1,0.1-0.1,0.1-0.1,0.1c0,0-0.1,0-0.1-0.1
			c-0.1-0.2-0.2-0.3-0.3-0.4c1-1.1,1.4-2.5,1.5-4.2h-1.7v5.9c0,1.2,0,1.7,0,1.8c0,0.1,0,0.1-0.1,0.1h-0.5c-0.1,0-0.1,0-0.1-0.1
			c0-0.1,0-0.6,0-1.8v-4.5c0-1.3,0-1.8,0-1.9c0-0.1,0-0.1,0.1-0.1c0.1,0,0.4,0,1.5,0h0.8v-1.1c0-0.5,0-0.8-0.1-1.2
			c0.3,0,0.5,0,0.8,0.1c0.1,0,0.1,0.1,0.1,0.1c0,0.1,0,0.1-0.1,0.2c0,0.1-0.1,0.3-0.1,0.8V30h0.9c1.1,0,1.5,0,1.5,0
			c0.1,0,0.1,0,0.1,0.1c0,0.1,0,0.6,0,1.9V35.5z"/>
		<path class="st4" d="M40.1,48.5c-0.1,0-0.2,0.2-0.3,0.3c-0.5,0.6-0.9,1-1.6,1.5c-0.1,0.1-0.1,0.1-0.2,0.1c0,0-0.1,0-0.2-0.2
			c-0.1-0.2-0.2-0.3-0.3-0.3c0.8-0.5,1.3-1,1.6-1.5c0.1-0.2,0.2-0.3,0.3-0.5c0.3,0.1,0.4,0.2,0.6,0.3c0.1,0,0.1,0.1,0.1,0.1
			S40.2,48.4,40.1,48.5z M43.5,41.9C43.5,42,43.5,42,43.5,41.9c-0.1,0.1-0.4,0.1-1,0.1v5c0.6,0,0.8,0,0.9,0c0.1,0,0.1,0,0.1,0.1v0.5
			c0,0.1,0,0.1-0.1,0.1c-0.1,0-0.4,0-1.5,0h-2.5c-1.1,0-1.5,0-1.5,0c-0.1,0-0.1,0-0.1-0.1v-0.5c0-0.1,0-0.1,0.1-0.1c0,0,0.3,0,1.2,0
			v-5c-0.7,0-0.9,0-1,0C38,42,38,42,38,41.9v-0.5c0-0.1,0-0.1,0.1-0.1c0,0,0.3,0,1,0v-0.3c0-0.7,0-1.1-0.1-1.4c0.3,0,0.5,0,0.7,0.1
			c0.1,0,0.1,0,0.1,0.1c0,0.1,0,0.1-0.1,0.2c0,0.1-0.1,0.4-0.1,1v0.3h2.1v-0.3c0-0.7,0-1.1-0.1-1.4c0.3,0,0.5,0,0.7,0.1
			c0.1,0,0.1,0.1,0.1,0.1c0,0.1,0,0.1-0.1,0.2c0,0.1-0.1,0.4-0.1,1v0.3c0.6,0,0.9,0,0.9,0c0.1,0,0.1,0,0.1,0.1V41.9z M41.8,42h-2.1
			v1.3h2.1V42z M41.8,43.8h-2.1v1.3h2.1V43.8z M41.8,45.7h-2.1V47h2.1V45.7z M41.6,48c0.1-0.1,0.1-0.1,0.2,0
			c0.3,0.4,0.6,0.7,1.1,1.1c-0.1,0.1-0.3,0.2-0.4,0.3c-0.1,0.1-0.1,0.1-0.1,0.1c0,0-0.1,0-0.1-0.1c-0.4-0.3-0.7-0.7-0.9-1.1
			c-0.1-0.1-0.1-0.1,0.1-0.2L41.6,48z M47.9,47.5c0,0.6,0,1.1,0,1.6c0,0.4-0.1,0.7-0.3,0.8c-0.3,0.2-0.6,0.2-1.4,0.2
			c-0.2,0-0.3,0-0.3-0.2c0-0.2-0.1-0.4-0.2-0.5c0.4,0,0.7,0,1,0c0.3,0,0.5-0.2,0.5-0.5v-2.7h-2.5c-0.2,1.9-0.6,2.9-1.3,3.9
			c-0.1,0.1-0.1,0.1-0.1,0.1c0,0-0.1,0-0.2-0.1c-0.1-0.1-0.3-0.2-0.5-0.3c1.1-1.5,1.4-2.6,1.4-6.1v-1.8c0-1.2,0-1.8,0-1.9
			c0-0.1,0-0.1,0.1-0.1c0.1,0,0.3,0,1.2,0h1.3c0.9,0,1.1,0,1.2,0c0.1,0,0.1,0,0.1,0.1c0,0.1,0,0.6,0,1.9V47.5z M47.2,43.5h-2.4v0.4
			c0,0.7,0,1.3,0,1.8h2.4V43.5z M47.2,40.7h-2.4v2.1h2.4V40.7z"/>
		<path class="st4" d="M44.1,55.6c0,0.5-0.4,1-1,1c-0.5,0-1-0.5-1-1c0-0.6,0.5-1,1-1C43.7,54.6,44.1,55,44.1,55.6z"/>
		<path class="st4" d="M41.2,64.1c0,0.1,0,0.1-0.1,0.1c-0.1,0-0.3,0-1.1,0h0c0.3,0.9,0.6,1.4,1.1,2.1c-0.1,0.1-0.2,0.3-0.3,0.5
			c0,0.1-0.1,0.1-0.1,0.1c0,0,0,0-0.1-0.1c-0.4-0.7-0.6-1.1-0.8-2c0,3.7,0.1,6.8,0.1,6.9c0,0.1,0,0.1-0.1,0.1h-0.6
			c-0.1,0-0.1,0-0.1-0.1c0-0.2,0.1-3.3,0.1-6.9c-0.3,1.5-0.7,2.6-1.3,3.8c0,0.1-0.1,0.1-0.1,0.1c0,0-0.1,0-0.1-0.1
			c-0.1-0.2-0.2-0.3-0.3-0.4c0.7-1.2,1.2-2.3,1.6-4h-0.2c-0.8,0-1,0-1.1,0c-0.1,0-0.1,0-0.1-0.1v-0.5c0-0.1,0-0.1,0.1-0.1
			c0.1,0,0.3,0,1.1,0h0.3v-1.1c0-0.7,0-1.1-0.1-1.5c0.3,0,0.5,0,0.8,0.1c0.1,0,0.1,0,0.1,0.1c0,0.1,0,0.2-0.1,0.2
			c-0.1,0.1-0.1,0.3-0.1,1v1.1H40c0.8,0,1,0,1.1,0c0.1,0,0.1,0,0.1,0.1V64.1z M48.6,71.2c0,0.1,0,0.1-0.1,0.1c-0.1,0-0.5,0-1.7,0
			h-4.3c-1.2,0-1.6,0-1.7,0c-0.1,0-0.1,0-0.1-0.1v-0.5c0-0.1,0-0.1,0.1-0.1c0.1,0,0.5,0,1.7,0h4.3c1.2,0,1.6,0,1.7,0
			c0.1,0,0.1,0,0.1,0.1V71.2z M48.4,62.2C48.4,62.3,48.4,62.3,48.4,62.2c-0.2,0.1-0.6,0.1-1.8,0.1H44c-0.1,0.5-0.3,1-0.4,1.4h0.7
			c0.4,0,0.6,0,0.6,0c0.1,0,0.1,0,0.1,0.1c0,0.4,0,0.7,0,1.4c0,1.2-0.1,2.8-0.2,3.6c-0.1,0.8-0.4,1.3-1.2,1.3c-0.2,0-0.4,0-0.6,0
			c-0.2,0-0.2,0-0.2-0.3c0-0.2-0.1-0.3-0.1-0.5c0.3,0.1,0.7,0.1,1,0.1c0.4,0,0.5-0.3,0.6-0.9c0.1-0.7,0.2-2.3,0.2-4.2h-0.9
			c-0.5,0-0.6,0-0.7,0c-0.1,0-0.1,0-0.1-0.1c0.1-0.2,0.2-0.3,0.2-0.5c0.1-0.4,0.3-0.9,0.4-1.3h-0.6c-1.2,0-1.6,0-1.7,0
			c-0.1,0-0.1,0-0.1-0.1v-0.5c0-0.1,0-0.1,0.1-0.1c0.1,0,0.5,0,1.7,0h3.9c1.2,0,1.6,0,1.7,0c0.1,0,0.1,0,0.1,0.1V62.2z M43.5,67.1
			c0,0.7,0,0.9,0,1c0,0.1,0,0.1-0.1,0.1c-0.1,0-0.2,0-0.7,0h-0.6c-0.6,0-0.7,0-0.7,0c-0.1,0-0.1,0-0.1-0.1c0-0.1,0-0.3,0-1V66
			c0-0.7,0-0.9,0-1c0-0.1,0-0.1,0.1-0.1c0.1,0,0.2,0,0.7,0h0.6c0.5,0,0.7,0,0.7,0c0.1,0,0.1,0,0.1,0.1c0,0.1,0,0.3,0,1V67.1z
			 M42.9,65.5h-1v2.1h1V65.5z M47.4,63.9c0.1,0,0.2,0,0.2,0c0,0,0.1,0,0.1,0c0.1,0,0.1,0,0.3,0.2c0.1,0.2,0.2,0.3,0.2,0.3
			c0,0.1,0,0.1-0.1,0.2C48,64.6,48,64.7,48,64.9c-0.2,1-0.4,1.8-0.9,2.7c0.3,0.6,0.8,1.2,1.5,1.7c-0.1,0.1-0.2,0.2-0.3,0.4
			c0,0.1-0.1,0.2-0.1,0.2c0,0-0.1,0-0.2-0.1c-0.5-0.5-0.9-1-1.2-1.5c-0.3,0.5-0.8,1-1.3,1.5c-0.1,0.1-0.1,0.1-0.2,0.1
			c-0.1,0-0.1,0-0.2-0.1c-0.1-0.1-0.2-0.2-0.3-0.3c0.7-0.5,1.2-1.1,1.6-1.8c-0.4-0.9-0.6-1.9-0.7-3c-0.1,0-0.2,0-0.2,0
			c-0.1,0-0.1,0-0.1-0.1V64c0-0.1,0-0.1,0.1-0.1c0.1,0,0.2,0,0.9,0H47.4z M46.3,64.5c0.1,0.8,0.2,1.6,0.5,2.3
			c0.3-0.7,0.5-1.5,0.6-2.3H46.3z"/>
		<path class="st4" d="M40.9,76.7c-0.1,0.1-0.1,0.2-0.2,0.4c-0.5,1.4-1.1,2.7-2.1,3.9c-0.1,0.1-0.1,0.1-0.2,0.1c0,0-0.1,0-0.2-0.1
			c-0.2-0.1-0.4-0.2-0.5-0.3c1.1-1.2,1.7-2.4,2.1-3.7c0.1-0.3,0.2-0.7,0.2-0.9c0.3,0.1,0.6,0.2,0.8,0.3c0.1,0,0.2,0.1,0.2,0.1
			S41,76.6,40.9,76.7z M42.8,75c0-0.7,0-1.1-0.1-1.5c0.3,0,0.6,0,0.9,0.1c0.1,0,0.2,0.1,0.2,0.1c0,0.1,0,0.1-0.1,0.2
			c-0.1,0.1-0.1,0.3-0.1,1v5.3c0,0.7,0,1.4,0,1.8c0,0.6-0.1,0.8-0.3,1c-0.3,0.2-0.6,0.2-1.7,0.2c-0.2,0-0.2,0-0.3-0.3
			c0-0.2-0.1-0.5-0.2-0.6c0.4,0.1,0.7,0.1,1.2,0.1c0.4,0,0.6-0.1,0.6-0.6V75z M45.9,76.2c0.1-0.1,0.2-0.1,0.2,0
			c0.5,1.6,1.4,3.2,2.3,4.3c-0.1,0.1-0.4,0.2-0.6,0.4c-0.1,0.1-0.1,0.1-0.2,0.1c0,0-0.1,0-0.1-0.1c-0.8-1.2-1.7-2.9-2.2-4.4
			c0-0.1,0-0.1,0.2-0.2L45.9,76.2z"/>
		<path class="st4" d="M40.5,92.5v0.8c0,0.1,0,0.2-0.2,0.2c-0.2,0-0.4,0-0.6,0c-0.1,0-0.2,0-0.2-0.2c0-0.8,0-1.5,0-2.6v-2.4
			c0-0.6,0-1.3,0-1.9c0-0.1,0-0.1,0.1-0.1c0.6,0,1.3,0,1.9,0h2.6c0.7,0,1.5,0,2.1,0c0.1,0,0.1,0,0.1,0.2c0,0.6,0,1.2,0,1.9v2.4
			c0,0.9,0,1.8,0.1,2.4c0,0.1,0,0.2-0.2,0.2h-0.6c-0.1,0-0.1,0-0.1-0.2v-0.7H40.5z M45.8,87.2h-5.2v4.6h5.2V87.2z"/>
		<path class="st4" d="M41.3,96.7c0.1,0,0.1,0,0.2,0.1c0.4,0.5,0.7,1,1,1.7c0,0.1,0,0.1-0.1,0.2c-0.2,0.1-0.3,0.2-0.5,0.2
			c-0.1,0-0.2,0-0.2-0.1c-0.3-0.6-0.6-1.3-1-1.8C41,96.8,41.2,96.7,41.3,96.7z M47.7,96.7c0.1,0.1,0.1,0.2,0,0.3
			c-0.1,0.1-0.2,0.3-0.3,0.6c-0.5,1.2-1.1,2.2-1.8,3.1c-0.7,1-1.4,1.6-2.4,2.3c-0.1,0.1-0.2,0.1-0.3,0c-0.2-0.1-0.4-0.2-0.6-0.3
			c1.2-0.8,1.9-1.4,2.7-2.4c0.6-0.8,1.2-1.9,1.6-3c0.1-0.3,0.2-0.6,0.2-1C47.1,96.4,47.5,96.5,47.7,96.7z M43.7,96.1
			c0.1,0,0.1,0,0.2,0.1c0.3,0.5,0.7,1.1,0.9,1.7c0,0.1,0,0.1-0.1,0.2c-0.1,0.1-0.3,0.2-0.5,0.2c-0.1,0-0.1,0-0.2-0.1
			c-0.3-0.7-0.5-1.2-0.9-1.8C43.4,96.3,43.5,96.2,43.7,96.1z"/>
		<path class="st4" d="M42.5,108.4c1.4,0.4,2.7,1,3.9,1.7c0.1,0,0.1,0.1,0.1,0.2c-0.1,0.2-0.2,0.4-0.3,0.6c-0.1,0.1-0.1,0.1-0.2,0
			c-1.1-0.7-2.4-1.3-3.5-1.6v2.8c0,0.7,0,1.7,0,2.4c0,0.1,0,0.2-0.2,0.2c-0.2,0-0.4,0-0.6,0c-0.1,0-0.2,0-0.2-0.2c0-0.8,0-1.7,0-2.4
			v-5.3c0-0.9,0-1.5-0.1-1.9c0.4,0,0.8,0.1,1,0.2c0.2,0,0.1,0.2,0.1,0.4c-0.1,0.2-0.1,0.6-0.1,1.3V108.4z"/>
		<path class="st4" d="M44.6,118.2c-1.8,0.3-3.4,0.5-4.9,0.9c-0.4,0.1-0.6,0.1-0.7,0.2c-0.1,0-0.2,0.1-0.2,0.1c-0.1,0-0.1,0-0.2-0.1
			c-0.1-0.2-0.2-0.5-0.3-0.9c0.4,0,0.7,0,1.5-0.1c1.8-0.3,4.2-0.6,7.4-1c0.1,0,0.2,0,0.2,0.1c0,0.2,0.1,0.4,0.1,0.6
			c0,0.1,0,0.1-0.2,0.1c-0.6,0-1.1,0.1-1.8,0.4c-1.8,0.7-3.1,2.2-3.1,3.8c0,2,1.7,2.6,3.5,2.7c0.2,0,0.2,0,0.2,0.1
			c0,0.1,0,0.4-0.1,0.6c0,0.1-0.1,0.2-0.2,0.2c-2-0.2-4.2-1-4.2-3.5C41.7,120.6,42.8,119.2,44.6,118.2L44.6,118.2z M46.1,119.9
			c0,0,0.1,0,0.1,0c0.5,0.3,1,0.9,1.4,1.5c0,0,0,0.1,0,0.1l-0.3,0.3c-0.1,0-0.1,0-0.2,0c-0.3-0.6-0.9-1.2-1.4-1.5L46.1,119.9z
			 M47.1,119.1c0,0,0.1,0,0.1,0c0.5,0.4,1,0.9,1.4,1.4c0,0.1,0,0.1,0,0.1l-0.3,0.3c0,0-0.1,0-0.1,0c-0.3-0.5-0.8-1.1-1.4-1.5
			L47.1,119.1z"/>
		<path class="st4" d="M45.9,130.8c0.7,0,1.3,0,1.9,0c0.1,0,0.1,0,0.1,0.1c0,0.2,0,0.3,0,0.5c0,0.1,0,0.2-0.2,0.1
			c-0.6,0-1.2,0-1.9,0h-0.5c0,1.6-0.3,2.8-0.9,3.8c-0.6,1-1.6,1.8-3,2.3c-0.2,0.1-0.2,0.1-0.3,0c-0.2-0.2-0.4-0.3-0.6-0.5
			c1.6-0.5,2.6-1.2,3.2-2.2c0.5-0.9,0.7-1.8,0.7-3.4h-3.1v0.6c0,0.7,0,1.3,0,1.9c0,0.1,0,0.1-0.1,0.1c-0.2,0-0.4,0-0.6,0
			c-0.1,0-0.1,0-0.1-0.1c0-0.6,0-1.2,0-1.9v-0.6h-0.6c-0.6,0-1.3,0-1.8,0c-0.1,0-0.1,0-0.1-0.2c0-0.2,0-0.4,0-0.7c0.6,0,1.3,0,2,0
			h0.6v-1c0-0.5,0-1.1-0.1-1.7c0.4,0,0.8,0.1,1,0.1c0.2,0,0.1,0.2,0.1,0.3c-0.1,0.1-0.1,0.6-0.1,1.2v1h3.1l0-1.1
			c0-0.8,0-1.3-0.1-1.8c0.3,0,0.7,0.1,0.9,0.2c0.2,0,0.2,0.2,0.1,0.3c-0.1,0.2-0.1,0.4-0.1,1.3l0,1.1H45.9z"/>
		<path class="st4" d="M39.6,139.8c0.1-0.1,0.1-0.1,0.2,0c0.7,0.4,1.5,0.9,2.2,1.6c0.1,0.1,0.1,0.1,0,0.2c-0.1,0.1-0.3,0.4-0.4,0.5
			c-0.1,0.1-0.1,0.1-0.2,0c-0.7-0.7-1.5-1.3-2.3-1.8C39.3,140.1,39.5,139.9,39.6,139.8z M40.7,146.1c1.3-0.7,2.4-1.3,3.5-2.2
			c1.2-1,2.2-1.9,3.2-3.2c0,0.3,0.1,0.6,0.2,0.8c0.1,0.2,0.1,0.3-0.1,0.4c-0.8,0.9-1.9,1.9-2.9,2.8c-1,0.8-2.2,1.6-3.6,2.3
			c-0.3,0.2-0.6,0.4-0.7,0.5c-0.1,0.1-0.2,0.1-0.3,0c-0.2-0.2-0.4-0.5-0.6-0.8C39.9,146.5,40.3,146.3,40.7,146.1z"/>
		<path class="st4" d="M41.1,151.3c-0.7,0-1.4,0-2,0.1c-0.1,0-0.2,0-0.2-0.2c0-0.2,0-0.5-0.1-0.7c0.7,0.1,1.4,0.1,2.3,0.1h4.2
			c0.3,0,0.5,0,0.6-0.1c0.1-0.1,0.2,0,0.3,0c0.2,0.1,0.4,0.3,0.5,0.5c0.1,0.1,0.1,0.3,0,0.4c-0.1,0.1-0.2,0.2-0.3,0.4
			c-0.6,1.5-1.4,2.9-2.4,3.9c-1,1.1-2.1,2.1-3.6,2.9c-0.1,0.1-0.3,0.1-0.4,0c-0.1-0.1-0.4-0.3-0.6-0.4c1.8-0.9,2.9-1.8,3.9-3
			c0.9-1,1.8-2.3,2.3-3.8H41.1z M49,149.4c0,0.7-0.5,1.2-1.2,1.2c-0.7,0-1.2-0.5-1.2-1.2c0-0.7,0.5-1.2,1.2-1.2
			C48.4,148.2,49,148.7,49,149.4z M47,149.4c0,0.4,0.3,0.8,0.8,0.8c0.4,0,0.8-0.3,0.8-0.8c0-0.4-0.3-0.8-0.8-0.8
			C47.3,148.6,47,149,47,149.4z"/>
		<path class="st4" d="M41.5,161.5c0.1,0,0.1,0.2,0.1,0.3c-0.1,0.2-0.1,0.5-0.1,0.9c0,1.4-0.3,2.4-0.7,3.3c-0.4,0.9-1,1.5-1.7,2.1
			c-0.1,0.1-0.2,0.1-0.3,0c-0.2-0.1-0.4-0.2-0.6-0.3c0.8-0.6,1.5-1.3,1.9-2.2c0.4-0.8,0.6-1.8,0.6-3.1c0-0.5,0-0.8-0.1-1.2
			C40.9,161.3,41.3,161.4,41.5,161.5z M44,166.9c0.8-0.4,1.4-0.8,2-1.3c0.7-0.5,1.4-1.2,2.1-2c0,0.3,0.1,0.5,0.2,0.8
			c0,0.1,0.1,0.2-0.1,0.3c-0.6,0.6-1.2,1.2-1.9,1.7c-0.6,0.5-1.3,0.9-2.1,1.3c-0.2,0.1-0.3,0.2-0.4,0.3c-0.1,0.1-0.2,0.1-0.3,0
			c-0.2-0.1-0.3-0.3-0.5-0.5c-0.1-0.1,0-0.2,0-0.3c0-0.1,0-0.4,0-1.2v-3.4c0-1.2,0-1.7-0.1-2.1c0.3,0,0.8,0.1,1,0.2
			c0.2,0.1,0.1,0.2,0.1,0.3c-0.1,0.2-0.1,0.6-0.1,1.6V166.9z"/>
		<path class="st4" d="M44.2,178.4c0,0.1,0,0.1-0.1,0.1c-0.1,0-0.4,0-0.5,0c-0.1,0-0.1-0.1-0.1-0.1c0-0.5,0-1.1,0-1.7
			c-1.3,0.7-2,1.3-2,2c0,0.7,0.7,1,2.1,1c1,0,2-0.1,2.9-0.2c0.1,0,0.1,0,0.1,0.1c0,0.2,0.1,0.4,0.1,0.6c0,0.1,0,0.2-0.1,0.2
			c-0.9,0.1-1.8,0.2-3,0.2c-1.7,0-2.8-0.4-2.8-1.7c0-1,0.7-1.8,2.7-2.8c0-0.8-0.3-1.1-1-1.1c-0.5,0-1.2,0.3-2,1
			c-0.4,0.4-0.7,0.7-1.1,1.2c-0.1,0.1-0.1,0.1-0.2,0c-0.1-0.1-0.3-0.3-0.4-0.5c0-0.1,0-0.1,0-0.2c1.1-0.9,2.1-2.1,2.8-3.3
			c-0.7,0-1.5,0-2.2,0c-0.1,0-0.1,0-0.1-0.1c0-0.1-0.1-0.4-0.1-0.6c0.9,0,1.8,0,2.8,0c0.1-0.4,0.3-0.8,0.4-1.2
			c0.1-0.2,0.1-0.4,0.1-0.6c0.3,0.1,0.7,0.2,0.9,0.3c0.1,0.1,0.1,0.2,0,0.3c0,0-0.1,0.1-0.2,0.3c-0.1,0.3-0.3,0.6-0.4,0.9
			c0.8-0.1,1.7-0.2,2.5-0.4c0.1,0,0.1,0,0.1,0c0,0.2,0.1,0.3,0.1,0.5c0,0.1,0,0.1-0.2,0.1c-0.9,0.2-2,0.3-2.9,0.4
			c-0.4,0.7-0.8,1.3-1.2,1.8l0,0c0.5-0.4,1-0.5,1.5-0.5c0.9,0,1.4,0.5,1.5,1.4c0.6-0.3,1.3-0.6,1.9-0.9c0.3-0.2,0.7-0.4,0.9-0.6
			c0.3,0.2,0.5,0.6,0.6,0.7c0.1,0.2,0,0.3-0.1,0.3c-0.1,0-0.4,0.1-0.7,0.2c-0.9,0.4-1.7,0.7-2.5,1V178.4z"/>
		<path class="st4" d="M40,188c0.4-0.2,0.8-0.4,1.3-0.6c0,0.2,0,0.3,0,0.5c0,0.3,0,0.3-0.3,0.4c-0.3,0.2-0.7,0.3-1,0.5v1.5
			c0,0.8,0,1.4,0,1.8c0,0.6-0.1,0.8-0.3,0.9c-0.2,0.2-0.5,0.2-1.2,0.2c-0.2,0-0.3,0-0.3-0.2c-0.1-0.2-0.1-0.4-0.2-0.5
			c0.3,0,0.5,0,0.9,0c0.3,0,0.5-0.1,0.5-0.6V189c-0.2,0.1-0.5,0.2-0.7,0.3c-0.3,0.1-0.4,0.2-0.4,0.2c0,0-0.1,0.1-0.1,0.1
			s-0.1,0-0.1-0.1c-0.1-0.2-0.2-0.5-0.2-0.7c0.3-0.1,0.6-0.1,1.1-0.3c0.2-0.1,0.4-0.1,0.6-0.2v-2.7h-0.4c-0.8,0-1.1,0-1.1,0
			c-0.1,0-0.1,0-0.1-0.1V185c0-0.1,0-0.1,0.1-0.1c0.1,0,0.3,0,1.1,0h0.4v-1c0-0.7,0-1.1-0.1-1.5c0.3,0,0.5,0,0.8,0.1
			c0.1,0,0.1,0,0.1,0.1c0,0.1,0,0.1-0.1,0.2c-0.1,0.1-0.1,0.3-0.1,1v1h0c0.8,0,1,0,1.1,0c0.1,0,0.1,0,0.1,0.1v0.5
			c0,0.1,0,0.1-0.1,0.1c-0.1,0-0.3,0-1.1,0h0V188z M45.2,192.1c0.6,0.1,1.3,0.2,2.1,0.2c0.5,0,1,0,1.4,0c-0.1,0.1-0.1,0.3-0.2,0.5
			c0,0.2-0.1,0.3-0.3,0.3h-0.9c-2.4-0.1-3.8-0.5-4.7-1.9c-0.3,0.7-0.8,1.4-1.5,2c-0.1,0.1-0.1,0.1-0.2,0.1s-0.1,0-0.2-0.1
			c-0.1-0.1-0.3-0.2-0.4-0.3c1.3-0.9,1.8-2.1,2-3.2c0.1-0.3,0.1-0.4,0.1-0.6c0.3,0.1,0.4,0.1,0.6,0.2c0.1,0,0.2,0.1,0.2,0.2
			s0,0.1-0.1,0.2c0,0-0.1,0.1-0.1,0.3c-0.1,0.3-0.1,0.5-0.2,0.8c0.4,0.7,0.9,1.2,1.6,1.5v-3.5h-1.2c-1.2,0-1.6,0-1.7,0
			c-0.1,0-0.1,0-0.1-0.1v-0.5c0-0.1,0-0.1,0.1-0.1c0.1,0,0.5,0,1.7,0h3.4c1.2,0,1.6,0,1.7,0c0.1,0,0.1,0,0.1,0.1v0.5
			c0,0.1,0,0.1-0.1,0.1c-0.1,0-0.5,0-1.7,0h-1.5v1.5h1.2c0.8,0,1.1,0,1.2,0c0.1,0,0.1,0,0.1,0.1v0.5c0,0.1,0,0.1-0.1,0.1
			c-0.1,0-0.3,0-1.2,0h-1.2V192.1z M47.4,185.7c0,0.8,0,1,0,1.1c0,0.1,0,0.1-0.1,0.1c-0.1,0-0.4,0-1.5,0h-2.1c-1,0-1.4,0-1.5,0
			c-0.1,0-0.1,0-0.1-0.1c0-0.1,0-0.3,0-1.1v-1.5c0-0.8,0-1,0-1.1c0-0.1,0-0.1,0.1-0.1c0.1,0,0.4,0,1.5,0h2.1c1,0,1.4,0,1.5,0
			c0.1,0,0.1,0,0.1,0.1c0,0.1,0,0.3,0,1.1V185.7z M46.7,183.6H43v1h3.7V183.6z M46.7,185.2H43v1.1h3.7V185.2z"/>
		<path class="st4" d="M39.1,200.2c0-0.4,0-1.1,0-1.6c-0.3,0.5-0.7,1-1.1,1.5c-0.1,0.1-0.1,0.1-0.1,0.1c0,0-0.1,0-0.1-0.1
			c-0.1-0.2-0.2-0.4-0.3-0.5c1.2-1.4,1.9-2.7,2.5-4.3c0.1-0.3,0.2-0.6,0.2-0.8c0.3,0.1,0.5,0.2,0.7,0.3c0.1,0,0.1,0.1,0.1,0.1
			c0,0.1,0,0.1-0.1,0.2c-0.1,0-0.1,0.2-0.2,0.4c-0.2,0.6-0.5,1.2-0.8,1.8v6c0,1.3,0,1.8,0,1.9c0,0.1,0,0.1-0.1,0.1h-0.6
			c-0.1,0-0.1,0-0.1-0.1c0-0.1,0-0.6,0-1.9V200.2z M43.5,202.7c-0.1,0-0.2,0.2-0.3,0.4c-0.5,0.7-1.1,1.3-2,1.9
			c-0.1,0-0.1,0.1-0.1,0.1c0,0-0.1,0-0.2-0.2c-0.1-0.2-0.3-0.3-0.4-0.3c1-0.6,1.6-1.2,2.1-1.9c0.2-0.3,0.3-0.5,0.4-0.7
			c0.3,0.1,0.5,0.3,0.6,0.4c0.1,0.1,0.1,0.1,0.1,0.2C43.6,202.6,43.6,202.7,43.5,202.7z M48.6,201.4
			C48.6,201.5,48.6,201.5,48.6,201.4c-0.2,0.1-0.6,0.1-1.8,0.1h-4.6c-1.2,0-1.6,0-1.7,0c-0.1,0-0.1,0-0.1-0.1v-0.5
			c0-0.1,0-0.1,0.1-0.1c0.1,0,0.5,0,1.7,0h0.3v-2.8c-1.1,0-1.5,0-1.5,0c-0.1,0-0.1,0-0.1-0.1v-0.5c0-0.1,0-0.1,0.1-0.1
			c0.1,0,0.4,0,1.5,0v-0.9c0-0.9,0-1.2-0.1-1.7c0.3,0,0.6,0,0.8,0.1c0.1,0,0.1,0,0.1,0.1c0,0.1,0,0.1,0,0.2c0,0.1-0.1,0.4-0.1,1.2
			v0.9h2.3v-0.9c0-0.9,0-1.2-0.1-1.7c0.3,0,0.6,0,0.8,0.1c0.1,0,0.1,0,0.1,0.1s0,0.1-0.1,0.2c0,0.1-0.1,0.4-0.1,1.2v1h0
			c1.2,0,1.6,0,1.7,0c0.1,0,0.1,0,0.1,0.1v0.5c0,0.1,0,0.1-0.1,0.1c-0.1,0-0.5,0-1.7,0h0v2.8h0.6c1.2,0,1.6,0,1.7,0
			c0.1,0,0.1,0,0.1,0.1V201.4z M45.5,198.1h-2.3v2.8h2.3V198.1z M45.8,202.2c0.1-0.1,0.1-0.1,0.2,0c0.6,0.9,1.5,1.8,2.6,2.4
			c-0.1,0.1-0.3,0.2-0.4,0.4c-0.1,0.1-0.1,0.1-0.2,0.1c0,0-0.1,0-0.2-0.1c-0.9-0.6-1.8-1.5-2.5-2.5c-0.1-0.1,0-0.1,0.1-0.2
			L45.8,202.2z"/>
		<path class="st4" d="M41.5,206.9c0.1,0,0.2,0.1,0.2,0.2c0,0.1,0,0.2-0.1,0.3c0,0.1-0.1,0.5-0.1,1.2c-0.1,1.8-0.2,3.5-0.2,5.1
			c0,1.3,0.4,1.8,1.4,1.8c1.5,0,3.1-0.9,4.3-2.3c0,0.3,0.1,0.5,0.2,0.7c0,0.1,0,0.1,0,0.2c0,0.1,0,0.1-0.1,0.2c-1.3,1.2-2.9,2-4.6,2
			c-1.4,0-2.1-0.6-2.1-2.4c0-1.7,0.1-3.7,0.2-5.3c0-0.7,0-1.3-0.1-1.8C40.8,206.8,41.2,206.8,41.5,206.9z"/>
		<path class="st4" d="M42.8,223.8c-0.9,0-1.9,0-2.8,0c-0.1,0-0.1,0-0.1-0.1c0-0.2,0-0.4,0-0.6c0.9,0.1,2,0.1,2.9,0.1
			c0-0.6,0-1.2,0-1.8c-1.2,0-2.2,0-3.2-0.1c-0.1,0-0.1,0-0.1-0.1c0-0.2,0-0.4,0-0.6c1.1,0.1,2.2,0.1,3.3,0.1c0-0.5,0-0.8,0-1.3
			c0-0.3,0-0.6-0.1-0.8c0.4,0,0.7,0.1,0.9,0.2c0.1,0,0.2,0.2,0.1,0.3c-0.1,0.1-0.1,0.3-0.1,0.6c0,0.4,0,0.6,0,1.1
			c1.1-0.1,2.1-0.2,2.9-0.4c0.1,0,0.1,0,0.1,0.1c0,0.2,0,0.4,0,0.5c0,0.1,0,0.1-0.1,0.1c-0.9,0.2-1.9,0.3-3,0.3c0,0.6,0,1.2,0,1.8
			c0.9-0.1,1.7-0.2,2.7-0.3c0.1,0,0.1,0,0.1,0.1c0,0.1,0,0.4,0,0.6c0,0.1,0,0.1-0.1,0.1c-0.9,0.2-1.7,0.3-2.7,0.3
			c0,0.7,0,1.4,0.1,2.1c1.1,0.3,2.2,0.8,3.2,1.5c0.1,0,0.1,0.1,0,0.2c0,0.2-0.2,0.4-0.3,0.5c-0.1,0.1-0.1,0.1-0.2,0
			c-1-0.8-1.8-1.2-2.7-1.5c0,1.3-0.7,1.9-2.1,1.9c-1.4,0-2.1-0.5-2.1-1.4c0-0.8,0.8-1.5,2.2-1.5c0.5,0,0.9,0,1.3,0.1
			C42.9,225.1,42.8,224.5,42.8,223.8z M41.6,226.3c-1,0-1.5,0.3-1.5,0.8c0,0.5,0.5,0.7,1.3,0.7c0.6,0,1-0.1,1.2-0.4
			c0.1-0.2,0.3-0.5,0.2-1C42.5,226.4,42.1,226.3,41.6,226.3z"/>
		<path class="st4" d="M48.1,233.3c0,0.1,0,0.1-0.2,0.1c-1.3,0-2.5,0-3.8,0c0,0.8,0,1.6,0,2.4c0.1,0.4,0.1,0.8,0.1,1.3
			c0,1.5-0.6,2.8-2.3,3.7c-0.1,0.1-0.2,0.1-0.3,0.1c-0.1,0-0.1,0-0.2-0.1c-0.1-0.1-0.3-0.3-0.6-0.3c1.7-0.7,2.5-1.8,2.6-3
			c-0.3,0.5-0.8,0.7-1.3,0.7c-0.8,0-1.6-0.6-1.6-1.7c0-1,0.8-1.7,1.6-1.7c0.5,0,0.9,0.1,1.1,0.4c0-0.6,0-1.1,0-1.7
			c-1.7,0.1-3.3,0.2-4.5,0.4c-0.3,0-0.4,0.1-0.5,0.1c-0.1,0-0.1,0-0.1-0.1c-0.1-0.2-0.1-0.4-0.2-0.8c0.4,0,0.8,0,1.5-0.1
			c1-0.1,2.2-0.2,3.8-0.3c0-0.5,0-0.7,0-1.1c0-0.3,0-0.5-0.1-0.8c0.4,0,0.7,0.1,0.9,0.1c0.1,0,0.2,0.1,0.2,0.2c0,0.1,0,0.1-0.1,0.2
			s-0.1,0.2-0.1,0.3c0,0.3,0,0.5,0,1c1.3,0,2.5,0,3.8,0c0.1,0,0.1,0,0.1,0.1V233.3z M41.4,236.4c0,0.7,0.4,1,1,1
			c0.7,0,1.1-0.5,1.1-1.1c0-0.6-0.4-1-1.1-1C41.8,235.4,41.4,235.8,41.4,236.4z"/>
	</g>
</g>
</svg>
