<?xml version="1.0" encoding="utf-8"?>
<!-- Generator: Adobe Illustrator 21.1.0, SVG Export Plug-In . SVG Version: 6.00 Build 0)  -->
<svg version="1.1" id="レイヤー_1" xmlns="http://www.w3.org/2000/svg" xmlns:xlink="http://www.w3.org/1999/xlink" x="0px"
	 y="0px" viewBox="0 0 200 74.3" style="enable-background:new 0 0 200 74.3;" xml:space="preserve">
<style type="text/css">
	.st0{fill:#282828;}
	.st1{fill:#CBCBCB;}
	.st2{fill:#FFFFFF;}
	.st3{fill:#E7211A;}
</style>
<g>
	<rect x="0.4" y="51.8" class="st0" width="199.1" height="22.5"/>
	<g>
		<path class="st1" d="M199.1,0.9v72.5H0.9V0.9H199.1 M200,0H0v74.3h200V0L200,0z"/>
	</g>
	<g>
		<path class="st2" d="M10.6,59c0-0.5,0-0.9-0.1-1.3c0.4,0,0.8,0.1,1.3,0.1h5.7c0.6,0,0.9,0,1.3-0.1c0,0.4-0.1,0.8-0.1,1.2v7.6
			c0,0.6,0,1,0.1,1.4h-1.4v-0.7h-5.4v0.7h-1.4c0-0.4,0.1-0.9,0.1-1.4V59z M11.9,61.8h5.4v-2.7h-5.4V61.8z M11.9,66h5.4v-3h-5.4V66z"
			/>
		<path class="st2" d="M22.7,60.5c-0.5,0-0.9,0-1.4,0.1v-1.4c0.5,0.1,0.8,0.1,1.4,0.1h3v-0.8c0-0.5,0-0.8-0.1-1.1h1.5
			c-0.1,0.3-0.1,0.6-0.1,1.1v0.8h3.2c0.6,0,1,0,1.4-0.1v1.4c-0.5,0-0.9-0.1-1.4-0.1h-2.5c0.6,1,1.1,1.8,1.8,2.5
			c0.8,0.8,1.6,1.5,2.6,2c-0.4,0.4-0.6,0.8-0.8,1.3c-0.8-0.5-1.3-0.9-2-1.6v1.3c-0.4,0-0.7-0.1-1.2-0.1h-1v0.8c0,0.6,0,1,0.1,1.5
			h-1.5c0.1-0.4,0.1-0.9,0.1-1.5v-0.8h-0.9c-0.5,0-0.8,0-1.2,0.1v-1.3c-0.7,0.7-1.2,1.1-1.9,1.6c-0.2-0.5-0.4-0.8-0.8-1.2
			c1.8-1.1,3.2-2.7,4.1-4.5H22.7z M25.7,62.7c0-0.4,0-0.8,0.1-1.3c-0.6,1.3-1.2,2.1-2.1,3.1c0.3,0,0.5,0,1,0h1V62.7z M28.2,64.5
			c0.5,0,0.8,0,1,0c-0.9-0.9-1.4-1.6-2.3-3.1c0.1,0.5,0.1,0.9,0.1,1.3v1.9H28.2z"/>
		<path class="st2" d="M36.9,61.6c-0.5,0-0.8,0-1.1,0.1v-0.6c-0.7,0.4-1.1,0.6-1.9,1c-0.3-0.6-0.4-0.8-0.7-1.2
			c2.2-0.8,3.9-2,4.8-3.4h1.5c0.5,0.7,1,1.2,1.8,1.8c1,0.7,1.8,1.2,3.1,1.6c-0.3,0.4-0.5,0.8-0.6,1.3c-0.9-0.4-1.3-0.6-2.1-1v0.6
			c-0.3,0-0.7-0.1-1.1-0.1h-1.2v1.1h3c0.6,0,1,0,1.3-0.1v1.3c-0.3,0-0.7-0.1-1.3-0.1h-3v2.6h3.2c0.6,0,1,0,1.4-0.1v1.3
			c-0.4-0.1-0.9-0.1-1.4-0.1h-7.4c-0.5,0-1,0-1.5,0.1v-1.3c0.4,0,0.9,0.1,1.5,0.1H38v-2.6h-2.8c-0.5,0-0.9,0-1.3,0.1v-1.3
			c0.3,0,0.7,0.1,1.3,0.1H38v-1.1H36.9z M36.1,64c0.4,0.7,0.6,1.1,0.9,1.9l-1.2,0.5c-0.2-0.7-0.6-1.4-0.9-1.9L36.1,64z M36.9,60.5
			l3.6,0c0.1,0,0.1,0,0.3,0c-0.9-0.7-1.5-1.2-2.1-2c-0.6,0.8-1.1,1.3-2.1,2H36.9z M42.5,64.5c-0.2,0.3-0.2,0.3-0.6,1.1
			c0,0.1-0.1,0.2-0.5,0.8L40.3,66c0.4-0.6,0.6-1.2,0.9-2L42.5,64.5z"/>
		<path class="st2" d="M51.3,65.4h-2.1V67c0,0.5,0,0.7,0,1.1h-1.3c0-0.4,0.1-0.7,0.1-1.2v-1.6c0-0.4,0-0.7,0-0.9c0.3,0,0.5,0,1.1,0
			h2.3v-0.5h-1.9c-0.5,0-0.7,0-1,0c0-0.1,0-0.1,0-0.3c0-0.1,0-0.3,0-0.5v-0.8c0-0.2,0-0.5,0-0.8c0.3,0,0.4,0,1.1,0h1.8v-0.4
			c-0.9,0-1.3,0.1-2.7,0.1c-0.1-0.3-0.2-0.6-0.4-0.9c0.4,0,0.7,0,0.9,0c1.2,0,3.1-0.1,4-0.2c0.6-0.1,0.9-0.1,1.3-0.2h-6.6
			c-0.1,4.2-0.4,6-1.3,8c-0.4-0.5-0.6-0.7-1-1.1c0.4-0.8,0.6-1.3,0.8-2.2c0.3-1.3,0.4-3.2,0.4-6c0-0.5,0-0.8-0.1-1.2
			c0.4,0,0.9,0.1,1.5,0.1h6.4c0.6,0,1,0,1.4,0c0,0.3,0,0.5,0,0.9v0.7c0,0.4,0,0.5,0,0.9c-0.4,0-0.8,0-1.3,0l0.8,0.8
			c-1.3,0.2-1.7,0.3-2.9,0.4v0.5h2c0.5,0,0.7,0,1,0c0,0.4,0,0.4,0,0.8v0.8c0,0.4,0,0.4,0,0.8c-0.4,0-0.4,0-1,0h-2.1v0.5H55
			c0.6,0,0.8,0,1.1,0c0,0.3,0,0.6,0,1V67c0,0.4-0.1,0.7-0.4,0.9C55.5,68,55.2,68,54.6,68c-0.3,0-0.4,0-0.9,0c0-0.4-0.1-0.6-0.2-1
			c0.2,0,0.2,0,0.3,0c0-0.1-0.1-0.2-0.1-0.3c-1.2,0.2-1.3,0.2-3.8,0.5c-0.1,0-0.2,0-0.3,0l-0.2-1.1c0.2,0,0.3,0,0.6,0
			c0.3,0,0.6,0,1.2-0.1V65.4z M54.7,59.1v-0.5h-6.8v0.5H54.7z M49.7,62.5v0.6h1.6v-0.6H49.7z M52.5,63.1h1.8v-0.6h-1.8V63.1z
			 M52.5,66c0.4,0,0.5-0.1,0.8-0.1c-0.1-0.1-0.1-0.2-0.2-0.3l0.6-0.3h-1.1V66z M53.9,65.4c0.3,0.4,0.6,0.9,0.8,1.4L54.2,67
			c0.2,0,0.3,0,0.4,0c0.2,0,0.3-0.1,0.3-0.3v-1.4H53.9z"/>
		<path class="st2" d="M65.7,61.8h1.7c0.5,0,0.9,0,1.3-0.1v1.3c-0.4,0-0.8-0.1-1.3-0.1h-1.3c0.7,1.2,1.7,2.2,2.9,2.9
			c-0.4,0.4-0.6,0.6-0.8,1.2c-0.5-0.4-0.9-0.7-1.3-1.2c-0.6-0.7-0.9-1.1-1.3-1.8c0,0.4,0,0.8,0,1.2v1.5c0,0.6,0,1,0.1,1.4h-1.3
			c0-0.4,0.1-0.8,0.1-1.4v-1.4c0-0.3,0-0.8,0-1.2c-0.8,1.3-1.6,2.2-2.8,3c-0.3-0.6-0.5-0.8-0.7-1.1c1.3-0.7,2.3-1.8,3-3.1h-0.8
			c-0.5,0-0.9,0-1.3,0.1v-0.5c-0.2,0.3-0.4,0.6-0.5,1c-0.3-0.5-0.5-0.9-0.7-1.5c0,0.4,0,1,0,1.5v3c0,0.6,0,1.1,0.1,1.4h-1.4
			c0-0.4,0.1-0.8,0.1-1.4v-2.5c0-0.5,0-0.8,0.1-1.5c-0.3,1.2-0.7,2-1.2,2.8c-0.1-0.6-0.3-0.9-0.5-1.3c0.6-0.7,1.2-2.1,1.6-3.5h-0.5
			c-0.4,0-0.6,0-0.8,0.1v-1.3c0.2,0,0.4,0.1,0.8,0.1h0.6v-0.9c0-0.6,0-0.9-0.1-1.2h1.3c0,0.3-0.1,0.7-0.1,1.2v0.9h0.4
			c0.3,0,0.4,0,0.6,0v1.2c0.5-0.8,0.9-2.1,0.9-2.8l1.2,0.3c0,0.1-0.1,0.3-0.2,0.6c-0.1,0.3-0.1,0.4-0.2,0.6h0.9v-0.8
			c0-0.5,0-0.8-0.1-1.1h1.4c0,0.3-0.1,0.6-0.1,1.1v0.8H67c0.6,0,0.9,0,1.3-0.1v1.3c-0.3,0-0.7-0.1-1.3-0.1h-1.4V61.8z M63.1,60.3
			c-0.2,0.5-0.3,0.7-0.7,1.3c-0.3-0.3-0.3-0.3-1-0.8c0.1-0.1,0.1-0.2,0.2-0.3c-0.2,0-0.4,0-0.6,0h-0.3c0.2,0.6,0.6,1.2,1.1,1.9v-0.7
			c0.4,0,0.7,0.1,1.3,0.1h1.2v-1.5H63.1z"/>
		<path class="st2" d="M79.8,59.3c0.6,0,0.8,0,1.1-0.1v1.3c-0.3,0-0.8-0.1-1.4-0.1h-1.7c0.1,2,0.4,3.4,0.8,4.5
			c0.2,0.5,0.5,0.9,0.7,1.2c0.1,0.1,0.2,0.2,0.3,0.2c0.1,0,0.3-0.6,0.4-1.8c0.5,0.4,0.7,0.5,1.1,0.7c-0.2,1.1-0.4,1.8-0.7,2.2
			c-0.2,0.3-0.5,0.5-0.8,0.5c-0.4,0-1-0.4-1.6-1.1c-0.6-0.8-1-2-1.3-3.5c-0.2-0.9-0.2-1.2-0.3-2.8h-4.7c-0.5,0-0.9,0-1.4,0.1v-1.3
			c0.4,0,0.8,0.1,1.4,0.1h4.6c0-0.6,0-0.6,0-1c0-0.3,0-0.7-0.1-0.9h1.4c0,0.3,0,0.6,0,0.9c0,0.2,0,0.5,0,0.9h1.4
			c-0.3-0.5-0.6-0.9-1.1-1.4l1-0.5c0.5,0.5,0.6,0.7,1.2,1.3l-0.9,0.5H79.8z M72.1,63c-0.4,0-0.9,0-1.2,0.1v-1.2
			c0.3,0,0.7,0.1,1.2,0.1h2.8c0.5,0,0.9,0,1.2-0.1v1.2c-0.3,0-0.7-0.1-1.2-0.1h-0.8v2.7c0.8-0.2,1.3-0.3,2.4-0.5v1.2
			c-2,0.5-3.8,0.9-5.4,1.1c-0.1,0-0.2,0-0.4,0.1l-0.2-1.3c0.5,0,1-0.1,2.4-0.3V63H72.1z"/>
		<path class="st2" d="M85,61.1c-0.7,0.5-1.1,0.6-1.9,1c-0.2-0.5-0.4-0.8-0.7-1.2c1.3-0.5,2.1-0.9,2.9-1.6c0.8-0.6,1.4-1.2,1.9-2
			h1.4c0.6,0.9,1.1,1.3,2,1.9c1,0.7,1.9,1.2,3,1.6c-0.3,0.5-0.5,0.8-0.6,1.3c-0.7-0.3-1.2-0.6-2-1.1V62c-0.3,0-0.6,0-1.1,0H86
			c-0.3,0-0.7,0-1,0V61.1z M84.3,64.1c-0.6,0-1,0-1.4,0.1v-1.4c0.4,0,0.8,0.1,1.4,0.1h7.3c0.6,0,1,0,1.4-0.1v1.4
			c-0.4,0-0.8-0.1-1.4-0.1h-4c-0.4,0.9-0.7,1.5-1.2,2.3c2.1-0.1,2.1-0.1,3.7-0.3c-0.4-0.4-0.6-0.6-1.2-1.3l1.2-0.5
			c1.3,1.3,1.8,1.9,2.7,3.1l-1.1,0.7c-0.4-0.6-0.5-0.7-0.7-1c-1,0.1-1.7,0.2-2.1,0.3c-1.2,0.1-3.5,0.3-3.9,0.4
			c-0.7,0-1.2,0.1-1.5,0.2l-0.2-1.4c0.3,0,0.5,0,0.7,0c0.1,0,0.4,0,1,0c0.6-0.9,0.9-1.5,1.3-2.3H84.3z M89.9,60.7c0.2,0,0.3,0,0.5,0
			c-1.1-0.7-1.7-1.3-2.4-2.3c-0.6,0.8-1.3,1.5-2.4,2.3c0.2,0,0.3,0,0.5,0H89.9z"/>
		<path class="st2" d="M97.9,66.9c0,0.6,0,0.8,0.1,1.2h-1.4c0.1-0.4,0.1-0.7,0.1-1.2v-2.9c-0.5,0.4-0.7,0.6-1.3,1
			c-0.1-0.4-0.4-0.9-0.6-1.2c0.8-0.5,1.4-0.9,2-1.6c0.6-0.6,0.9-1.1,1.3-1.8h-1.9c-0.4,0-0.7,0-1,0V59c0.3,0,0.5,0,0.9,0h0.6v-1
			c0-0.3,0-0.6-0.1-0.9h1.4c0,0.3-0.1,0.5-0.1,0.9v1h0.5c0.4,0,0.5,0,0.7,0l0.6,0.6c-0.1,0.2-0.2,0.3-0.3,0.5
			c-0.4,0.8-0.6,1.2-1.2,2c0.6,0.6,1.1,1,1.9,1.5c-0.3,0.4-0.5,0.7-0.6,1.1c-0.6-0.4-1-0.7-1.5-1.3V66.9z M102.8,66.3h1.4
			c0.6,0,1,0,1.3-0.1v1.4c-0.4-0.1-0.9-0.1-1.3-0.1h-4c-0.5,0-0.9,0-1.3,0.1v-1.4c0.4,0,0.8,0.1,1.3,0.1h1.3v-4.6h-0.9
			c-0.4,0-0.8,0-1.1,0.1v-1.3c0.3,0,0.6,0.1,1.1,0.1h0.9v-2.1c0-0.5,0-0.8-0.1-1.2h1.5c-0.1,0.5-0.1,0.7-0.1,1.2v2.1h1.2
			c0.5,0,0.8,0,1.1-0.1v1.3c-0.4,0-0.7-0.1-1.1-0.1h-1.2V66.3z"/>
		<path class="st2" d="M116.4,58.1c0,0.1,0,0.1-0.1,0.2c0,0,0,0.1-0.1,0.1c-0.1,0.1-0.1,0.1-0.2,0.3c-0.4,0.9-1.2,2-1.9,2.9
			c-0.6,0.6-0.9,1-1.8,1.7c-0.3-0.5-0.5-0.8-0.9-1.2c1.3-0.9,2.2-1.8,2.9-3c0.4-0.6,0.6-1,0.6-1.5L116.4,58.1z M120.6,68
			c-0.3-0.6-0.4-0.8-0.6-1.2c-2,0.3-4.1,0.5-6.3,0.6c-0.9,0.1-1,0.1-1.4,0.1l-0.2-1.5c0.3,0,0.5,0,0.9,0c0.3,0,0.3,0,0.7,0
			c0.6-1.1,1.2-2.2,1.7-3.5c0.4-0.9,0.6-1.4,0.7-2l1.5,0.4c-0.1,0.1-0.1,0.2-0.2,0.5c-0.6,1.4-1.6,3.5-2.2,4.5
			c1.9-0.1,2.7-0.2,4.2-0.4c-0.5-0.9-0.8-1.3-1.5-2.1l1.1-0.6c1.1,1.5,2.1,2.9,2.9,4.4L120.6,68z M118.9,57.5
			c0.2,0.6,0.7,1.6,1.3,2.3c0.4,0.5,0.8,0.9,1.3,1.3c0.3,0.2,0.5,0.4,1.1,0.8c-0.4,0.4-0.6,0.7-0.9,1.3c-1.3-1.1-2-1.7-2.7-2.7
			c-0.4-0.6-0.8-1.2-1.1-1.8c0-0.1-0.1-0.1-0.1-0.3c0-0.1,0-0.1-0.1-0.2c-0.1-0.1-0.1-0.1-0.1-0.2L118.9,57.5z"/>
		<path class="st2" d="M133.3,59.3c0.6,0,0.8,0,1.1-0.1v1.3c-0.3,0-0.8-0.1-1.4-0.1h-1.7c0.1,2,0.4,3.4,0.8,4.5
			c0.2,0.5,0.5,0.9,0.7,1.2c0.1,0.1,0.2,0.2,0.3,0.2c0.1,0,0.3-0.6,0.4-1.8c0.5,0.4,0.7,0.5,1.1,0.7c-0.2,1.1-0.4,1.8-0.7,2.2
			c-0.2,0.3-0.5,0.5-0.8,0.5c-0.4,0-1-0.4-1.6-1.1c-0.6-0.8-1-2-1.3-3.5c-0.2-0.9-0.2-1.2-0.3-2.8h-4.7c-0.5,0-0.9,0-1.4,0.1v-1.3
			c0.4,0,0.8,0.1,1.4,0.1h4.6c0-0.6,0-0.6,0-1c0-0.3,0-0.7-0.1-0.9h1.4c0,0.3,0,0.6,0,0.9c0,0.2,0,0.5,0,0.9h1.4
			c-0.3-0.5-0.6-0.9-1.1-1.4l1-0.5c0.5,0.5,0.6,0.7,1.2,1.3l-0.9,0.5H133.3z M125.6,63c-0.4,0-0.9,0-1.2,0.1v-1.2
			c0.3,0,0.7,0.1,1.2,0.1h2.8c0.5,0,0.9,0,1.2-0.1v1.2c-0.3,0-0.7-0.1-1.2-0.1h-0.8v2.7c0.8-0.2,1.3-0.3,2.4-0.5v1.2
			c-2,0.5-3.8,0.9-5.4,1.1c-0.1,0-0.2,0-0.4,0.1l-0.2-1.3c0.5,0,1-0.1,2.4-0.3V63H125.6z"/>
		<path class="st2" d="M144.8,58.8c-0.1,0-0.1,0-1,0.3c-0.7,0.2-1,0.3-2,0.5c0,1.6,0,1.6,0,2h2.5c0.8,0,1,0,1.4-0.1v1.4
			c-0.4,0-0.7-0.1-1.4-0.1h-2.6c-0.1,1.1-0.4,1.9-0.8,2.6s-1.1,1.3-1.9,1.9c-0.3,0.2-0.6,0.3-1.1,0.6c-0.3-0.6-0.5-0.8-1-1.2
			c0.8-0.3,1.3-0.6,1.8-1c0.7-0.6,1.1-1.2,1.3-2c0-0.2,0.1-0.4,0.1-0.8h-2.9c-0.8,0-1,0-1.4,0.1v-1.4c0.4,0.1,0.6,0.1,1.4,0.1h3
			c0-0.5,0-0.9,0-1.8c-0.9,0.1-1.3,0.2-3.2,0.3c-0.1-0.5-0.2-0.7-0.4-1.3c0.4,0,0.6,0,0.7,0c1.6,0,3.6-0.3,5-0.7
			c0.7-0.2,1-0.3,1.4-0.6L144.8,58.8z"/>
		<path class="st2" d="M150.1,60.5c-0.1-0.5-0.1-0.6-0.2-0.9l1.4-0.2c0,0.2,0,0.5,0.1,0.9l0.2,0.9l3.5-0.6c0.3,0,0.5-0.1,0.8-0.2
			l0.8,0.7c-0.1,0.2-0.2,0.3-0.3,0.6c-0.5,1.3-1.2,2.2-2.3,3c-0.4-0.4-0.6-0.6-1.1-0.8c0.9-0.5,1.5-1.2,2-2.1c-0.1,0-0.1,0-0.4,0.1
			l-2.8,0.5l0.8,4.3c0.1,0.6,0.1,0.6,0.2,0.9l-1.5,0.3c0-0.3,0-0.6-0.1-0.9l-0.8-4.4l-1,0.2c-0.4,0.1-0.7,0.1-1,0.3l-0.2-1.3
			c0.4,0,0.7,0,1.1-0.1l1-0.2L150.1,60.5z"/>
		<path class="st2" d="M158.7,65.7c1-0.1,2.4-0.4,3.5-0.9c1.5-0.6,2.6-1.5,3.5-2.9c0.5-0.8,0.8-1.4,1.2-2.3c0.5,0.6,0.6,0.7,1.2,1.1
			c-1,2.1-2.1,3.5-3.7,4.6c-1.2,0.8-2.6,1.4-4.5,1.8c-0.5,0.1-0.5,0.1-0.8,0.2L158.7,65.7z M159.7,58.4c1.4,0.9,2.1,1.4,3,2.3
			l-1,1.3c-0.9-1-1.9-1.8-3-2.4L159.7,58.4z"/>
		<path class="st2" d="M173.7,67.8c0-0.3,0.1-0.7,0.1-1v-2.5c0-0.1,0-0.3,0-0.6c-0.1,0.1-0.2,0.1-0.4,0.2c-0.9,0.5-1.9,0.9-3.3,1.3
			c-0.2-0.6-0.3-0.8-0.7-1.3c1.2-0.2,2.1-0.6,3.3-1.1c1.4-0.6,2.6-1.5,3.6-2.5c-0.1,0-0.1,0-0.2,0c-0.1,0-0.1,0-4.3,0
			c-0.7,0-0.8,0-1.2,0.1v-1.4c0.3,0.1,0.8,0.1,1.3,0.1h2v-1c0-0.4,0-0.6-0.1-0.8h1.6c0,0.2-0.1,0.4-0.1,0.8v1h2c0.4,0,0.6,0,0.8-0.1
			l0.7,0.8c-0.2,0.2-0.2,0.2-0.5,0.5c-0.7,0.8-1.3,1.3-2.4,2.2c1.4,0.4,2.7,1,4.1,1.8l-0.8,1.2c-1.2-0.8-2.1-1.3-3.6-1.9
			c-0.2-0.1-0.2-0.1-0.3-0.1c0,0.1,0,0.5,0,0.6v2.6c0,0.5,0,0.7,0.1,1H173.7z"/>
		<path class="st2" d="M184.7,58c0,0.3,0,0.3-0.1,2.6c-0.1,2.3-0.3,3.6-0.9,4.8c-0.4,0.8-0.8,1.4-1.6,2.2c-0.5-0.6-0.6-0.8-1.2-1.1
			c0.6-0.5,0.9-0.8,1.2-1.3c0.8-1.3,1.1-2.9,1.1-6.1c0-0.6,0-0.8,0-1.1L184.7,58z M187.8,57.9c-0.1,0.3-0.1,0.5-0.1,1.1l-0.1,6.7
			c0.8-0.4,1.3-0.7,1.8-1.3c0.5-0.6,0.9-1.3,1.1-2.1c0.4,0.5,0.6,0.7,1.1,1.1c-0.5,1.2-1.1,2-1.9,2.7c-0.7,0.6-1.3,0.9-2.5,1.4
			c-0.3,0.1-0.4,0.1-0.5,0.2l-0.8-0.8c0.1-0.3,0.1-0.6,0.1-1.2l0.1-6.6v-0.4c0-0.3,0-0.6,0-0.8L187.8,57.9z"/>
	</g>
	<g>
		<g>
			<g>
				<path class="st3" d="M77.9,17.3c-0.4-1.6-1.7-2.9-3.4-3.4c-3-0.8-15-0.8-15-0.8s-12,0-15,0.8c-1.6,0.4-2.9,1.7-3.4,3.4
					c-0.8,3-0.8,9.2-0.8,9.2s0,6.2,0.8,9.2c0.4,1.6,1.7,2.9,3.4,3.4c3,0.8,15,0.8,15,0.8s12,0,15-0.8c1.6-0.4,2.9-1.7,3.4-3.4
					c0.8-3,0.8-9.2,0.8-9.2S78.7,20.3,77.9,17.3z"/>
				<polygon class="st2" points="55.8,32.3 65.7,26.5 55.8,20.8 				"/>
			</g>
			<g>
				<g>
					<path class="st0" d="M96,37.5c-0.8-0.5-1.3-1.3-1.6-2.4c-0.3-1.1-0.5-2.5-0.5-4.3v-2.4c0-1.8,0.2-3.3,0.5-4.4
						c0.4-1.1,0.9-1.9,1.7-2.4c0.8-0.5,1.8-0.8,3.1-0.8c1.2,0,2.2,0.3,3,0.8c0.7,0.5,1.3,1.3,1.6,2.4c0.3,1.1,0.5,2.5,0.5,4.3v2.4
						c0,1.8-0.2,3.2-0.5,4.3c-0.3,1.1-0.9,1.9-1.6,2.4c-0.8,0.5-1.8,0.8-3.1,0.8C97.8,38.3,96.7,38,96,37.5z M100.2,34.9
						c0.2-0.5,0.3-1.4,0.3-2.7V27c0-1.2-0.1-2.1-0.3-2.6c-0.2-0.6-0.6-0.8-1.1-0.8c-0.5,0-0.9,0.3-1.1,0.8c-0.2,0.6-0.3,1.4-0.3,2.6
						v5.2c0,1.2,0.1,2.1,0.3,2.7c0.2,0.5,0.6,0.8,1.1,0.8C99.7,35.7,100,35.4,100.2,34.9z"/>
					<path class="st0" d="M154.1,30.9v0.8c0,1.1,0,1.9,0.1,2.4c0.1,0.5,0.2,0.9,0.4,1.2c0.2,0.2,0.5,0.4,0.9,0.4
						c0.6,0,1-0.2,1.2-0.7c0.2-0.4,0.3-1.2,0.3-2.2l3.3,0.2c0,0.1,0,0.3,0,0.6c0,1.6-0.4,2.7-1.3,3.5c-0.8,0.8-2,1.1-3.6,1.1
						c-1.9,0-3.2-0.6-3.9-1.8c-0.7-1.2-1.1-3-1.1-5.4v-2.9c0-2.5,0.4-4.4,1.2-5.5c0.8-1.2,2.1-1.7,4-1.7c1.3,0,2.3,0.2,3,0.7
						c0.7,0.5,1.2,1.2,1.5,2.2c0.3,1,0.4,2.4,0.4,4.2v2.9H154.1z M154.6,23.8c-0.2,0.2-0.3,0.6-0.4,1.2c-0.1,0.5-0.1,1.4-0.1,2.4
						v1.2h2.8v-1.2c0-1.1,0-1.9-0.1-2.4c-0.1-0.6-0.2-0.9-0.4-1.2c-0.2-0.2-0.5-0.3-0.9-0.3C155.1,23.5,154.8,23.6,154.6,23.8z"/>
					<path class="st0" d="M86.8,30.6L82.5,15h3.7l1.5,7c0.4,1.7,0.7,3.2,0.8,4.4h0.1c0.1-0.9,0.4-2.3,0.8-4.4l1.6-7.1h3.7l-4.4,15.5
						V38h-3.7V30.6z"/>
					<path class="st0" d="M116.5,21.2V38h-3l-0.3-2.1h-0.1c-0.8,1.6-2,2.3-3.6,2.3c-1.1,0-1.9-0.4-2.5-1.1c-0.5-0.7-0.8-1.9-0.8-3.4
						V21.2h3.8v12.3c0,0.7,0.1,1.3,0.2,1.6c0.2,0.3,0.4,0.5,0.8,0.5c0.3,0,0.6-0.1,0.9-0.3c0.3-0.2,0.5-0.5,0.7-0.8V21.2H116.5z"/>
					<path class="st0" d="M135.9,21.2V38h-3l-0.3-2.1h-0.1c-0.8,1.6-2,2.3-3.6,2.3c-1.1,0-1.9-0.4-2.5-1.1c-0.5-0.7-0.8-1.9-0.8-3.4
						V21.2h3.8v12.3c0,0.7,0.1,1.3,0.2,1.6c0.2,0.3,0.4,0.5,0.8,0.5c0.3,0,0.6-0.1,0.9-0.3c0.3-0.2,0.5-0.5,0.7-0.8V21.2H135.9z"/>
					<path class="st0" d="M126.8,18.1h-3.7V38h-3.7V18.1h-3.7v-3h11.2V18.1z"/>
					<path class="st0" d="M148.4,23.9c-0.2-1.1-0.6-1.8-1.1-2.3c-0.5-0.5-1.2-0.7-2.1-0.7c-0.7,0-1.3,0.2-1.9,0.6
						c-0.6,0.4-1.1,0.9-1.4,1.5h0l0-8.8h-3.6V38h3.1l0.4-1.6h0.1c0.3,0.6,0.7,1,1.3,1.3c0.6,0.3,1.2,0.5,1.9,0.5
						c1.3,0,2.2-0.6,2.8-1.8c0.6-1.2,0.9-3,0.9-5.5v-2.7C148.8,26.4,148.6,25,148.4,23.9z M145,30.8c0,1.2-0.1,2.2-0.2,2.9
						c-0.1,0.7-0.3,1.2-0.5,1.5c-0.2,0.3-0.6,0.4-1,0.4c-0.3,0-0.6-0.1-0.9-0.2c-0.3-0.1-0.5-0.4-0.6-0.7v-9.5
						c0.1-0.5,0.3-0.8,0.7-1.1c0.3-0.3,0.6-0.4,1-0.4c0.4,0,0.7,0.2,0.9,0.5c0.2,0.3,0.4,0.8,0.4,1.5c0.1,0.7,0.1,1.7,0.1,3V30.8z"
						/>
				</g>
			</g>
		</g>
	</g>
</g>
</svg>
