<?xml version="1.0" encoding="utf-8"?>
<!-- Generator: Adobe Illustrator 21.1.0, SVG Export Plug-In . SVG Version: 6.00 Build 0)  -->
<svg version="1.1" id="レイヤー_1" xmlns="http://www.w3.org/2000/svg" xmlns:xlink="http://www.w3.org/1999/xlink" x="0px"
	 y="0px" viewBox="0 0 200 83.5" style="enable-background:new 0 0 200 83.5;" xml:space="preserve">
<style type="text/css">
	.st0{fill:#1C2E5F;}
	.st1{fill:#FFFFFF;}
	.st2{fill:none;stroke:#1C2E5F;stroke-miterlimit:10;}
</style>
<g>
	<path class="st0" d="M200,78.5c0,2.8-2.2,5-5,5H5c-2.8,0-5-2.2-5-5V5c0-2.8,2.2-5,5-5h190c2.8,0,5,2.2,5,5V78.5z"/>
</g>
<g id="事業紹介_1_">
	<g>
		<path class="st1" d="M60.1,34.5c0.8-0.1,1.7-0.2,2.5-0.4c-0.1,0.2-0.1,0.5-0.1,0.7l0,0.3c0.8-0.9,1.3-2,1.7-3.4
			c0.2-0.9,0.4-2.2,0.5-3.8c-0.9,0-1.2,0-1.3,0c-0.2,0-0.2,0-0.2-0.2v-1.1c0-0.2,0-0.2,0.2-0.2c0.1,0,0.4,0,1.3,0c0-0.4,0-0.8,0-1.2
			c0-0.9,0-1.4-0.1-2.1c0.5,0,1,0,1.5,0.1c0.1,0,0.2,0.1,0.2,0.2c0,0.1,0,0.2-0.1,0.4c-0.1,0.2-0.1,0.6-0.1,1.5c0,0.4,0,0.8,0,1.2
			H67c1.2,0,1.5,0,1.6,0c0.1,0,0.2,0,0.2,0.2c0,0.5,0,0.9,0,1.4c0,2.9-0.1,5.1-0.4,6.9c-0.2,1.1-0.8,1.7-1.9,1.7c-0.3,0-0.6,0-0.8,0
			c-0.3,0-0.3,0-0.4-0.5c-0.1-0.4-0.2-0.7-0.3-1c0.5,0.1,0.9,0.1,1.2,0.1c0.4,0,0.7-0.2,0.8-0.9c0.2-1.5,0.4-3.5,0.4-6.3h-1.3
			c-0.1,1.8-0.3,3.2-0.6,4.3c-0.4,1.7-1.2,3.2-2.2,4.3c-0.1,0.2-0.2,0.2-0.3,0.2c-0.1,0-0.1-0.1-0.3-0.2c-0.3-0.3-0.6-0.6-1-0.7
			c0.2-0.2,0.3-0.3,0.5-0.5c-0.1,0-0.2,0-0.3,0.1c-1.6,0.3-3.5,0.6-5.2,0.8c-0.2,0-0.5,0.1-0.6,0.1c-0.1,0-0.2,0.1-0.3,0.1
			c-0.1,0-0.2-0.1-0.2-0.3c-0.1-0.4-0.2-0.9-0.3-1.3c0.6,0,1,0,1.6,0c0.5,0,1.1-0.1,1.7-0.1v-0.9h-0.9c-1.3,0-1.7,0-1.8,0
			c-0.2,0-0.2,0-0.2-0.2v-0.9c0-0.1,0-0.2,0.2-0.2c0.1,0,0.5,0,1.8,0h0.9V32h-0.6c-1.3,0-1.7,0-1.8,0c-0.2,0-0.2,0-0.2-0.2
			c0-0.1,0-0.5,0-1.2V29c0-0.8,0-1.2,0-1.2c0-0.2,0-0.2,0.2-0.2c0.1,0,0.5,0,1.8,0h0.6V27h-1.1c-1.3,0-1.8,0-1.9,0
			c-0.1,0-0.2,0-0.2-0.2V26c0-0.1,0-0.2,0.2-0.2c0.1,0,0.6,0,1.9,0h1.1v-0.7c-0.6,0.1-1.3,0.1-1.9,0.1c-0.4,0-0.4,0-0.6-0.3
			c-0.1-0.3-0.3-0.6-0.5-0.8c2.1-0.1,3.8-0.2,5.3-0.6c0.3-0.1,0.6-0.2,0.8-0.3c0.3,0.3,0.6,0.6,0.9,0.8c0.1,0.1,0.1,0.2,0.1,0.3
			c0,0.1-0.1,0.1-0.3,0.1c-0.2,0-0.4,0.1-0.7,0.1c-0.6,0.1-1.2,0.2-1.8,0.3v0.8h0.9c1.3,0,1.8,0,1.9,0c0.1,0,0.1,0,0.1,0.2v0.9
			c0,0.2,0,0.2-0.1,0.2c-0.1,0-0.6,0-1.9,0h-0.9v0.7h0.6c1.3,0,1.7,0,1.8,0c0.2,0,0.2,0,0.2,0.2c0,0.1,0,0.4,0,1.2v1.6
			c0,0.8,0,1.2,0,1.2c0,0.1,0,0.2-0.2,0.2c-0.1,0-0.5,0-1.8,0h-0.6v0.6h0.6c1.3,0,1.7,0,1.8,0c0.1,0,0.2,0,0.2,0.2v0.9
			c0,0.1,0,0.2-0.2,0.2c-0.1,0-0.5,0-1.8,0h-0.6V34.5z M58.7,29.4v-0.8h-1.2v0.8H58.7z M58.7,31.1v-0.8h-1.2v0.8H58.7z M60.1,28.6
			v0.8h1.3v-0.8H60.1z M61.4,30.3h-1.3v0.8h1.3V30.3z"/>
		<path class="st1" d="M74.1,25.2c-1.4,0-1.8,0-1.9,0c-0.1,0-0.2,0-0.2-0.1v-1.2c0-0.2,0-0.2,0.2-0.2c0.1,0,0.6,0,1.9,0h9
			c1.4,0,1.8,0,1.9,0c0.1,0,0.2,0,0.2,0.2v1.2c0,0.1,0,0.1-0.2,0.1c-0.1,0-0.5,0-1.9,0h-3.8v1.5h0.9c1.4,0,1.8,0,1.9,0
			c0.2,0,0.2,0,0.2,0.2c0,0.1,0,0.6,0,1.6v3.4c0,1,0,1.5,0,1.6c0,0.1,0,0.2-0.2,0.2c-0.1,0-0.5,0-1.9,0h-3.1c-1.3,0-1.8,0-1.9,0
			c-0.1,0-0.2,0-0.2-0.2c0-0.1,0-0.6,0-1.6v-3.4c0-1.1,0-1.5,0-1.6c0-0.2,0-0.2,0.2-0.2c0.1,0,0.6,0,1.9,0h0.8v-1.5H74.1z
			 M83.4,28.9c0-0.7,0-1.6-0.1-2.2c0.6,0,1,0.1,1.5,0.1c0.2,0,0.3,0.1,0.3,0.2c0,0.1,0,0.2-0.1,0.3C85,27.5,84.9,28,84.9,29v4.8
			c0,1.9,0,2.9,0,3c0,0.1,0,0.2-0.2,0.2h-1.2c-0.1,0-0.2,0-0.2-0.2v-0.6h-9.6v0.6c0,0.1,0,0.2-0.2,0.2h-1.2c-0.1,0-0.2,0-0.2-0.2
			c0-0.1,0-1.1,0-3v-4.9c0-0.8,0-1.6-0.1-2.1c0.6,0,1,0.1,1.5,0.1c0.2,0,0.3,0.1,0.3,0.2c0,0.1-0.1,0.2-0.1,0.3
			c-0.1,0.2-0.1,0.6-0.1,1.6v5.7h9.6V28.9z M77.9,29.5v-1.6h-1.5v1.6H77.9z M77.9,32.4v-1.7h-1.5v1.7H77.9z M79.3,27.9v1.6h1.6v-1.6
			H79.3z M80.9,30.7h-1.6v1.7h1.6V30.7z"/>
		<path class="st1" d="M97,27.6h-5.2c-1,0-1.7,0-2.2,0.1c-0.2,0-0.2-0.1-0.2-0.3c0-0.4-0.1-1.1-0.1-1.6c0.9,0.1,1.4,0.1,2.5,0.1h4.5
			c0.8,0,1.6,0,2.4-0.1c0.2,0,0.3,0.1,0.3,0.3c0,0.8,0,1.6,0,2.4v3.6c0,1.1,0,2.3,0.1,2.7c0,0.2-0.1,0.2-0.3,0.2c-0.4,0-0.9,0-1.3,0
			C97,35,97,35,97,34.7v-0.6h-5.2c-0.9,0-1.7,0-2.5,0.1c-0.1,0-0.2-0.1-0.2-0.2c0-0.4-0.1-0.9-0.1-1.6c0.7,0,1.6,0.1,2.8,0.1H97
			V27.6z"/>
		<path class="st1" d="M104.5,25.2c0.1-0.1,0.1-0.1,0.2-0.1c0.1,0,0.1,0,0.2,0.1c0.8,0.4,2,1.3,2.9,2.1c0.1,0.1,0.1,0.2,0.1,0.2
			c0,0.1,0,0.1-0.1,0.2c-0.2,0.3-0.7,0.9-0.9,1.1c-0.1,0.1-0.1,0.1-0.2,0.1s-0.1,0-0.2-0.1c-0.9-0.9-2-1.8-3.1-2.4
			C103.8,26,104.2,25.5,104.5,25.2z M105.8,33.1c1.8-0.9,2.8-1.6,4.3-2.8c1.8-1.5,2.8-2.4,4.1-4.1c0.1,0.8,0.2,1.3,0.4,1.8
			c0,0.1,0.1,0.2,0.1,0.3c0,0.1-0.1,0.3-0.2,0.5c-0.8,0.9-2.1,2.1-3.4,3.2c-1.2,1-2.5,1.8-4.5,2.9c-0.7,0.4-0.9,0.6-1,0.7
			c-0.1,0.1-0.2,0.2-0.3,0.2c-0.1,0-0.2-0.1-0.3-0.2c-0.4-0.4-0.8-1-1.2-1.7C104.5,33.7,105,33.5,105.8,33.1z"/>
		<path class="st1" d="M125.7,29.6c-0.1,1.7-0.3,2.7-0.9,3.8c-0.6,1.2-1.7,2.3-2.6,2.8c-0.2,0.1-0.3,0.2-0.5,0.2
			c-0.1,0-0.2,0-0.3-0.1c-0.3-0.3-0.8-0.6-1.3-0.8c1.5-0.8,2.4-1.5,3-2.7c0.6-1,0.7-1.8,0.8-3.2H121c-0.8,0-1.5,0-2.2,0.1
			c-0.1,0-0.2-0.1-0.2-0.3c-0.1-0.4-0.1-1-0.1-1.4c0.8,0.1,1.7,0.1,2.5,0.1h6.7c1.2,0,2,0,2.9-0.1c0.1,0,0.2,0.1,0.2,0.3
			c0,0.2,0,1,0,1.2c0,0.2-0.1,0.3-0.2,0.3c-0.8,0-1.8-0.1-2.9-0.1H125.7z M122.8,26.1c-0.7,0-1.3,0-2.1,0.1c-0.2,0-0.2-0.1-0.3-0.3
			c0-0.4-0.1-0.9-0.1-1.4c1.1,0.1,1.8,0.1,2.5,0.1h3.4c0.8,0,1.8,0,2.5-0.1c0.1,0,0.2,0.1,0.2,0.3c0,0.4,0,0.7,0,1.1
			c0,0.2,0,0.3-0.2,0.3c-0.8,0-1.7,0-2.5,0H122.8z"/>
		<path class="st1" d="M135.1,25.2c0.1-0.1,0.1-0.1,0.2-0.1c0.1,0,0.1,0,0.2,0.1c0.8,0.4,2,1.3,2.9,2.1c0.1,0.1,0.1,0.2,0.1,0.2
			c0,0.1,0,0.1-0.1,0.2c-0.2,0.3-0.7,0.9-0.9,1.1c-0.1,0.1-0.1,0.1-0.2,0.1s-0.1,0-0.2-0.1c-0.9-0.9-2-1.8-3.1-2.4
			C134.4,26,134.9,25.5,135.1,25.2z M136.4,33.1c1.8-0.9,2.8-1.6,4.3-2.8c1.8-1.5,2.8-2.4,4.1-4.1c0.1,0.8,0.2,1.3,0.4,1.8
			c0,0.1,0.1,0.2,0.1,0.3c0,0.1-0.1,0.3-0.2,0.5c-0.8,0.9-2.1,2.1-3.4,3.2c-1.2,1-2.5,1.8-4.5,2.9c-0.7,0.4-0.9,0.6-1,0.7
			c-0.1,0.1-0.2,0.2-0.3,0.2c-0.1,0-0.2-0.1-0.3-0.2c-0.4-0.4-0.8-1-1.2-1.7C135.2,33.7,135.7,33.5,136.4,33.1z"/>
		<path class="st1" d="M150.3,25.6c0.2-0.1,0.3,0,0.4,0.1c0.7,0.9,1.3,1.9,1.7,2.8c0,0.1,0.1,0.1,0.1,0.2c0,0.1-0.1,0.1-0.2,0.2
			c-0.3,0.2-0.8,0.4-1.2,0.6c-0.2,0.1-0.3,0-0.4-0.2c-0.5-1.1-1-2.1-1.8-3C149.6,25.9,150,25.7,150.3,25.6z M160.8,25.8
			c0.1,0.1,0.2,0.2,0.2,0.3c0,0.1,0,0.2-0.1,0.3c-0.3,0.2-0.5,0.7-0.6,1c-1.1,2.4-1.9,3.8-2.9,5.1c-1.1,1.4-2.3,2.7-4,3.7
			c-0.1,0.1-0.2,0.1-0.3,0.1c-0.1,0-0.1,0-0.3-0.1c-0.5-0.3-0.9-0.6-1.4-0.7c2.1-1.4,3.3-2.4,4.5-4c1.1-1.3,2-3,2.6-4.6
			c0.2-0.6,0.4-1.2,0.4-2C159.7,25.2,160.3,25.5,160.8,25.8z M154.2,24.7c0.2-0.1,0.3,0,0.4,0.1c0.5,0.7,1.2,1.9,1.5,2.8
			c0.1,0.2,0,0.3-0.1,0.4c-0.3,0.2-0.8,0.4-1.1,0.5c-0.2,0.1-0.3,0.1-0.4-0.2c-0.4-1.1-0.9-2.1-1.5-3
			C153.3,25.1,153.8,24.8,154.2,24.7z"/>
		<path class="st1" d="M57.8,53.7c-1.3,0-1.8,0-1.9,0c-0.1,0-0.2,0-0.2-0.2v-1.5c0-0.1,0-0.1,0.2-0.1c0.1,0,0.6,0,1.9,0h9
			c1.3,0,1.8,0,1.9,0c0.1,0,0.2,0,0.2,0.1v1.5c0,0.1,0,0.2-0.2,0.2c-0.1,0-0.6,0-1.9,0H57.8z"/>
		<path class="st1" d="M80.5,58c0,0.2,0,0.4,0.3,0.4c0.2,0,0.6,0,1.2,0c0.8,0,1.2,0,1.5-0.2c0.3-0.1,0.3-0.3,0.4-1.2
			c0.3,0.2,0.6,0.4,1,0.5c0.4,0.1,0.4,0.1,0.3,0.5c-0.1,0.8-0.3,1.1-0.7,1.3c-0.4,0.3-1.3,0.4-2.5,0.4c-1.3,0-2.2-0.1-2.6-0.2
			c-0.4-0.1-0.6-0.4-0.6-1v-1.1h-1.3c-0.9,1.7-2.5,2.2-4.7,2.4c-0.5,0-0.5,0-0.7-0.4c-0.1-0.3-0.3-0.6-0.6-0.9
			c1.9,0,3.4-0.2,4.1-1.2c-1.4,0-1.9,0-2,0c-0.1,0-0.2,0-0.2-0.2c0-0.1,0-0.5,0-1.3v-2.2c0-0.9,0-1.2,0-1.3c0-0.1,0-0.2,0.2-0.2
			c0.1,0,0.6,0,2.1,0h4.9c1.4,0,2,0,2.1,0c0.2,0,0.2,0,0.2,0.2c0,0.1,0,0.5,0,1.3V56c0,0.9,0,1.2,0,1.3c0,0.2,0,0.2-0.2,0.2
			c-0.1,0-0.6,0-2.1,0h-0.3V58z M76.8,50.9c1,0,1.4,0,1.4,0c0.2,0,0.2,0,0.2,0.2v0.7c0,0.2,0,0.2-0.2,0.2c-0.1,0-0.4,0-1.4,0h-2.5
			c-1.3,0-1.9,0-1.9,0c-0.1,0-0.2,0-0.2-0.2c0-0.1,0-0.5,0-1.5v-1.9c0-0.9,0-1.4,0-1.5c0-0.2,0-0.2,0.2-0.2c0.1,0,0.7,0,1.9,0h2.2
			c1.2,0,1.6,0,1.7,0c0.1,0,0.2,0,0.2,0.2v0.7c0,0.1,0,0.2-0.2,0.2c-0.1,0-0.5,0-1.7,0h-0.2v0.6c0.9,0,1.3,0,1.4,0
			c0.1,0,0.1,0,0.1,0.2c0,0.1,0,0.3,0,0.7v0.4c0,0.4,0,0.6,0,0.7c0,0.1,0,0.2-0.1,0.2c-0.1,0-0.5,0-1.4,0v0.6H76.8z M73.6,48.3h1.4
			v-0.6h-1.4V48.3z M76.5,49h-2.9v0.6h2.9V49z M75.1,50.9v-0.6h-1.4v0.6H75.1z M75.2,53.3v0.6h6.4v-0.6H75.2z M81.6,55.3v-0.6h-6.4
			v0.6H81.6z M81.6,56h-6.4v0.6h6.4V56z M80.2,48.9c-0.3,0.4-0.6,0.7-1,1.1c-0.2,0.2-0.3,0.2-0.3,0.2c-0.1,0-0.2-0.1-0.3-0.3
			c-0.2-0.3-0.4-0.5-0.6-0.6c0.8-0.7,1.3-1.4,1.8-2.3c0.2-0.3,0.3-0.6,0.3-0.8c0.4,0.1,0.8,0.2,1.2,0.3c0.2,0,0.3,0.1,0.3,0.2
			s0,0.1-0.1,0.2c-0.1,0.1-0.2,0.2-0.3,0.5L81,47.6h1.9c1.4,0,1.8,0,1.9,0c0.2,0,0.2,0,0.2,0.2v1c0,0.2,0,0.2-0.2,0.2
			c-0.1,0-0.6,0-1.9,0H80.2z M81.2,51.4c-1,0-1.4,0-1.5,0c-0.1,0-0.2,0-0.2-0.2v-1c0-0.1,0-0.2,0.2-0.2c0.1,0,0.4,0,1.5,0h1.6
			c1,0,1.4,0,1.5,0c0.1,0,0.2,0,0.2,0.2v1c0,0.2,0,0.2-0.2,0.2c-0.1,0-0.4,0-1.5,0H81.2z"/>
		<path class="st1" d="M95.7,56.6c0,0.2-0.1,0.2-0.3,0.3c-0.2,0-0.6,0.1-1.1,0.1c-0.1,0-0.2-0.1-0.2-0.2c0-0.5,0-1.3,0-1.8
			c-1.3,0.7-1.8,1.3-1.8,2c0,0.6,0.5,1,2.1,1c1.4,0,2.6-0.1,3.7-0.3c0.1,0,0.2,0,0.2,0.2c0.1,0.3,0.1,0.9,0.1,1.2
			c0,0.2,0,0.3-0.2,0.3c-1.3,0.2-2.3,0.2-3.7,0.2c-2.5,0-3.8-0.7-3.8-2.5c0-1.4,0.9-2.5,3.2-3.7c0-0.8-0.2-1.1-0.9-1
			c-0.7,0-1.4,0.5-2.1,1.1c-0.6,0.6-1,1.1-1.5,1.6c-0.1,0.1-0.1,0.1-0.2,0.1c0,0-0.1,0-0.2-0.1c-0.2-0.2-0.7-0.7-0.9-1
			c0-0.1-0.1-0.1-0.1-0.1c0-0.1,0-0.1,0.1-0.2c1.2-1,2.3-2.2,3.1-3.7c-0.7,0-1.5,0-2.4,0c-0.1,0-0.2-0.1-0.2-0.2
			c0-0.2-0.1-0.8-0.1-1.2c1.1,0.1,2.3,0,3.4,0c0.2-0.4,0.3-0.8,0.5-1.3c0.1-0.3,0.1-0.5,0.1-0.9c0.7,0.1,1.3,0.3,1.7,0.4
			c0.1,0,0.2,0.1,0.2,0.3c0,0.1,0,0.2-0.1,0.2c-0.1,0.1-0.2,0.2-0.3,0.4c-0.1,0.2-0.2,0.4-0.3,0.8c0.9-0.1,1.8-0.3,2.7-0.5
			c0.2,0,0.2,0,0.2,0.2c0.1,0.3,0.1,0.6,0.1,1.1c0,0.1,0,0.2-0.3,0.2c-1.1,0.2-2.4,0.3-3.5,0.5c-0.3,0.6-0.7,1.1-1.1,1.7l0,0
			c0.5-0.3,1.1-0.5,1.5-0.5c1,0,1.7,0.4,1.8,1.6c0.6-0.3,1.4-0.7,2.2-1c0.3-0.1,0.8-0.4,1.1-0.8c0.5,0.5,0.9,1,1,1.3
			c0.1,0.1,0.1,0.2,0.1,0.3c0,0.1-0.1,0.2-0.2,0.2c-0.3,0-0.6,0.1-0.9,0.2c-1,0.3-2,0.7-3.2,1.2V56.6z"/>
		<path class="st1" d="M111.5,57.6c0,0.3,0.1,0.5,0.3,0.5c0.2,0.1,0.6,0.1,1.2,0.1c0.5,0,1.1-0.1,1.3-0.2c0.2-0.2,0.4-0.6,0.4-1.6
			c0.3,0.2,0.7,0.4,1.1,0.5c0.4,0.1,0.4,0.1,0.3,0.5c-0.1,1-0.3,1.4-0.7,1.7c-0.4,0.3-1.4,0.5-2.5,0.5c-1.1,0-1.8,0-2.3-0.2
			c-0.3-0.2-0.6-0.4-0.6-1.1v-3.1h-1.4c-0.4,2.5-2,4.1-4.6,4.6c-0.2,0-0.2,0-0.3,0c-0.1,0-0.2-0.1-0.3-0.4c-0.2-0.4-0.5-0.7-0.7-1
			c2.7-0.3,4-1.4,4.3-3.3h0c-1.5,0-1.9,0-2,0c-0.2,0-0.2,0-0.2-0.2c0-0.1,0-0.7,0-1.8v-4.5c0-1.2,0-1.8,0-1.9c0-0.2,0-0.2,0.2-0.2
			c0.1,0,0.6,0,2.1,0h4.8c1.4,0,1.9,0,2.1,0c0.1,0,0.2,0,0.2,0.2c0,0.1,0,0.7,0,1.9v4.5c0,1.2,0,1.7,0,1.8c0,0.2,0,0.2-0.2,0.2
			c-0.1,0-0.6,0-2.1,0h-0.3V57.6z M106.3,48.2v1.1h6.1v-1.1H106.3z M112.4,51.6v-1.1h-6.1v1.1H112.4z M112.4,52.8h-6.1V54h6.1V52.8z
			"/>
		<path class="st1" d="M123.5,52.5c0.8-0.5,1.5-0.7,2.4-0.7c2.2,0,3.7,1.4,3.7,3.6c0,2.5-2,4.1-5.2,4.1c-1.9,0-3-0.8-3-2.2
			c0-1,0.9-1.8,2.1-1.8c1.4,0,2.4,0.8,2.8,2.2c1-0.5,1.5-1.1,1.5-2.3c0-1.4-1-2.3-2.4-2.3c-1.2,0-2.6,0.6-3.8,1.6
			c-0.4,0.4-0.9,0.8-1.3,1.3c-0.1,0.1-0.2,0.2-0.3,0.2c-0.1,0-0.1,0-0.2-0.1c-0.3-0.3-0.6-0.7-0.9-1c-0.1-0.1,0-0.2,0.1-0.3
			c1.2-0.9,2.2-1.9,3.6-3.3c0.9-1,1.6-1.7,2.3-2.6c-0.9,0.2-2,0.4-2.9,0.6c-0.2,0-0.4,0.1-0.6,0.2c-0.1,0-0.2,0.1-0.3,0.1
			c-0.1,0-0.3-0.1-0.3-0.3c-0.2-0.3-0.3-0.8-0.5-1.6c0.5,0.1,0.9,0.1,1.4,0c0.9-0.1,2.2-0.3,3.4-0.5c0.4-0.1,0.7-0.1,0.8-0.2
			c0.1,0,0.2-0.1,0.3-0.1c0.1,0,0.2,0,0.3,0.1c0.5,0.3,0.8,0.6,1,1c0.1,0.1,0.2,0.2,0.2,0.4c0,0.1-0.1,0.3-0.3,0.4
			c-0.3,0.1-0.4,0.2-0.7,0.5C125.6,50.3,124.6,51.3,123.5,52.5L123.5,52.5z M123.5,56.7c-0.4,0-0.7,0.3-0.7,0.6
			c0,0.5,0.4,0.8,1.3,0.8c0.3,0,0.5,0,0.7-0.1C124.6,57.2,124.1,56.7,123.5,56.7z"/>
	</g>
</g>
<g>
	<g>
		<circle class="st1" cx="28" cy="41.7" r="8"/>
	</g>
	<polyline class="st2" points="26.7,39 29.7,41.7 26.7,44.5 	"/>
</g>
</svg>
